<svg xmlns:xlink="http://www.w3.org/1999/xlink" xmlns="http://www.w3.org/2000/svg" width="300" height="300" viewBox="0 0 300 300" fill="none">
<path d="M278.776 181.878L286.678 183.99L287.174 182.144L290.102 182.926L289.606 184.772L290.107 184.906C291.257 185.214 291.994 185.805 292.318 186.68C292.642 187.555 292.612 188.708 292.227 190.14L291.656 192.267L289.149 191.597L289.559 190.072C289.648 189.737 289.645 189.457 289.548 189.23C289.448 189.017 289.251 188.871 288.956 188.792L288.555 188.685L287.925 191.033L284.997 190.251L285.627 187.903L277.725 185.791L278.776 181.878Z" fill="#189944"/>
<path d="M276.733 189.16L287.38 192.664L286.11 196.512L275.463 193.008L276.733 189.16ZM288.603 193.067L291.107 193.891L289.836 197.739L287.332 196.914L288.603 193.067Z" fill="#189944"/>
<path d="M273.125 199.214C273.366 198.609 273.673 198.12 274.045 197.746C274.43 197.377 274.871 197.15 275.367 197.064C275.863 196.978 276.42 197.057 277.037 197.302L281.917 199.241L282.663 197.369L285.479 198.488L284.733 200.36L287.26 201.364L286.486 205.328L283.264 204.048L282.257 206.577L279.441 205.458L280.448 202.929L276.803 201.48C276.507 201.363 276.276 201.345 276.109 201.428C275.949 201.529 275.808 201.734 275.685 202.043L275.024 203.703L271.841 202.438L273.125 199.214Z" fill="#189944"/>
<path d="M271.568 203.974L281.397 209.357L279.528 212.765L277.901 212.064L277.811 212.228C278.196 212.849 278.374 213.532 278.346 214.274C278.33 215.024 278.112 215.781 277.692 216.546C277.239 217.373 276.679 217.99 276.013 218.4C275.34 218.821 274.575 218.979 273.718 218.873L273.619 219.055C274.146 219.849 274.39 220.655 274.353 221.471C274.327 222.295 274.088 223.12 273.635 223.946C273.169 224.796 272.605 225.436 271.945 225.864C271.284 226.292 270.527 226.477 269.675 226.421C268.815 226.377 267.858 226.066 266.802 225.488L261.396 222.527L263.345 218.973L268.295 221.685C268.769 221.944 269.211 222.115 269.623 222.198C270.04 222.301 270.422 222.281 270.768 222.138C271.114 221.996 271.421 221.682 271.687 221.196C271.934 220.747 272.05 220.305 272.035 219.87C272.014 219.448 271.881 219.059 271.634 218.703C271.388 218.346 271.04 218.045 270.591 217.8L265.513 215.018L267.451 211.482L272.402 214.194C272.875 214.453 273.318 214.625 273.73 214.708C274.147 214.81 274.532 214.784 274.885 214.63C275.238 214.476 275.544 214.161 275.804 213.688C276.05 213.238 276.157 212.799 276.124 212.37C276.103 211.948 275.969 211.558 275.723 211.202C275.476 210.846 275.135 210.548 274.698 210.309L269.62 207.528L271.568 203.974Z" fill="#189944"/>
<path d="M260.279 223.504L269.477 229.904L267.162 233.231L257.964 226.832L260.279 223.504ZM270.533 230.639L272.697 232.144L270.382 235.471L268.218 233.966L270.533 230.639Z" fill="#189944"/>
<path d="M257.038 228.367L265.718 235.453L263.248 238.481L261.773 237.465L261.655 237.61C261.918 238.272 261.952 238.997 261.755 239.785C261.561 240.592 261.209 241.307 260.701 241.93C260.237 242.499 259.751 242.952 259.244 243.29C258.728 243.638 258.173 243.847 257.58 243.917C256.998 243.996 256.37 243.913 255.696 243.667C255.033 243.429 254.32 243 253.56 242.379L248.786 238.482L251.348 235.341L255.559 238.779C256.031 239.164 256.477 239.438 256.896 239.602C257.318 239.785 257.725 239.823 258.118 239.714C258.512 239.624 258.893 239.354 259.261 238.903C259.612 238.473 259.817 238.024 259.879 237.555C259.95 237.095 259.89 236.644 259.698 236.201C259.517 235.767 259.217 235.379 258.8 235.038L254.476 231.508L257.038 228.367Z" fill="#189944"/>
<path d="M244.218 243.101C244.674 242.635 245.146 242.302 245.634 242.101C246.131 241.909 246.625 241.87 247.115 241.982C247.606 242.094 248.088 242.383 248.562 242.848L252.31 246.524L253.721 245.083L255.883 247.205L254.472 248.645L256.413 250.548L254.168 253.908L251.694 251.481L249.789 253.427L247.626 251.305L249.531 249.36L246.732 246.614C246.504 246.391 246.298 246.286 246.112 246.297C245.926 246.329 245.717 246.463 245.484 246.701L244.233 247.978L241.789 245.581L244.218 243.101Z" fill="#189944"/>
<path d="M228.166 256.944L232.869 263.633L234.432 262.531L236.174 265.01L234.611 266.111L234.909 266.536C235.593 267.509 235.779 268.436 235.467 269.316C235.154 270.197 234.392 271.064 233.18 271.918L231.379 273.188L229.887 271.066L231.178 270.156C231.461 269.956 231.639 269.738 231.71 269.502C231.769 269.274 231.712 269.035 231.537 268.786L231.298 268.447L229.31 269.848L227.568 267.369L229.556 265.968L224.853 259.28L228.166 256.944Z" fill="#734FF4"/>
<path d="M222.005 261.183L227.936 270.691L224.5 272.841L218.569 263.333L222.005 261.183ZM228.617 271.783L230.012 274.019L226.576 276.169L225.181 273.933L228.617 271.783Z" fill="#734FF4"/>
<path d="M212.786 266.628C213.357 266.316 213.905 266.134 214.43 266.084C214.962 266.046 215.445 266.152 215.881 266.402C216.318 266.653 216.694 267.069 217.012 267.653L219.523 272.264L221.292 271.296L222.742 273.957L220.973 274.924L222.273 277.312L219.147 279.872L217.489 276.829L215.1 278.135L213.651 275.474L216.04 274.168L214.164 270.723C214.012 270.444 213.845 270.283 213.664 270.24C213.477 270.216 213.238 270.283 212.946 270.443L211.378 271.3L209.74 268.293L212.786 266.628Z" fill="#734FF4"/>
<path d="M208.658 269.234L212.773 279.66L209.161 281.093L208.359 279.513L208.185 279.582C208.084 280.307 207.785 280.946 207.289 281.5C206.798 282.067 206.146 282.512 205.335 282.834C204.459 283.181 203.635 283.3 202.862 283.19C202.076 283.085 201.387 282.718 200.796 282.089L200.603 282.166C200.501 283.114 200.175 283.891 199.624 284.497C199.079 285.115 198.368 285.598 197.493 285.945C196.591 286.303 195.75 286.436 194.969 286.344C194.188 286.252 193.488 285.912 192.868 285.324C192.236 284.741 191.699 283.89 191.257 282.77L188.994 277.036L192.761 275.541L194.833 280.793C195.032 281.295 195.262 281.709 195.525 282.037C195.781 282.382 196.087 282.61 196.444 282.722C196.801 282.833 197.236 282.787 197.752 282.582C198.228 282.393 198.6 282.127 198.866 281.783C199.119 281.444 199.265 281.059 199.303 280.627C199.341 280.195 199.266 279.741 199.078 279.265L196.953 273.878L200.7 272.392L202.773 277.643C202.971 278.145 203.201 278.56 203.465 278.887C203.72 279.232 204.033 279.458 204.402 279.564C204.772 279.671 205.208 279.624 205.71 279.425C206.187 279.236 206.549 278.966 206.797 278.614C207.051 278.275 207.197 277.89 207.235 277.458C207.273 277.026 207.2 276.578 207.018 276.115L204.892 270.729L208.658 269.234Z" fill="#734FF4"/>
<path d="M187.521 277.048L190.515 287.851L186.612 288.941L183.618 278.138L187.521 277.048ZM190.858 289.091L191.562 291.632L187.66 292.721L186.956 290.181L190.858 289.091Z" fill="#734FF4"/>
<path d="M181.854 278.738L183.976 289.746L180.142 290.493L179.662 288.768L179.478 288.803C179.256 289.481 178.818 290.06 178.163 290.54C177.497 291.037 176.769 291.362 175.981 291.515C175.26 291.655 174.598 291.693 173.992 291.627C173.374 291.565 172.815 291.37 172.314 291.045C171.817 290.733 171.389 290.266 171.029 289.645C170.672 289.038 170.401 288.252 170.215 287.287L169.048 281.232L173.024 280.458L174.054 285.799C174.169 286.397 174.335 286.893 174.552 287.288C174.759 287.699 175.047 287.988 175.418 288.156C175.778 288.34 176.243 288.376 176.814 288.265C177.358 288.159 177.803 287.945 178.151 287.624C178.5 287.316 178.743 286.93 178.88 286.466C179.019 286.016 179.037 285.526 178.935 284.996L177.878 279.512L181.854 278.738Z" fill="#734FF4"/>
<path d="M162.566 281.845C163.213 281.779 163.789 281.826 164.291 281.984C164.795 282.156 165.199 282.442 165.503 282.843C165.807 283.244 165.992 283.775 166.057 284.436L166.573 289.664L168.578 289.462L168.876 292.479L166.871 292.681L167.138 295.388L163.264 296.529L162.923 293.078L160.216 293.351L159.918 290.334L162.625 290.061L162.24 286.156C162.209 285.839 162.118 285.625 161.968 285.515C161.806 285.42 161.559 285.389 161.228 285.423L159.451 285.602L159.114 282.192L162.566 281.845Z" fill="#734FF4"/>
<path d="M140.955 282.148L140.279 290.304L142.183 290.459L141.932 293.481L140.028 293.326L139.985 293.844C139.887 295.031 139.436 295.863 138.632 296.339C137.829 296.816 136.689 296.994 135.212 296.874L133.018 296.696L133.233 294.108L134.806 294.236C135.151 294.264 135.426 294.21 135.632 294.074C135.824 293.937 135.933 293.716 135.958 293.413L135.992 292.999L133.57 292.802L133.821 289.78L136.243 289.976L136.919 281.82L140.955 282.148Z" fill="#2C8BE8"/>
<path d="M133.532 281.445L131.962 292.553L127.952 291.993L129.522 280.885L133.532 281.445ZM131.782 293.828L131.413 296.44L127.403 295.88L127.772 293.268L131.782 293.828Z" fill="#2C8BE8"/>
<path d="M122.981 279.689C123.619 279.819 124.154 280.033 124.587 280.333C125.018 280.647 125.319 281.04 125.49 281.513C125.662 281.986 125.681 282.548 125.548 283.199L124.496 288.349L126.47 288.749L125.863 291.721L123.889 291.321L123.344 293.988L119.308 293.932L120.003 290.533L117.337 289.992L117.945 287.02L120.61 287.561L121.396 283.714C121.46 283.402 121.436 283.171 121.326 283.021C121.199 282.882 120.972 282.78 120.647 282.714L118.897 282.359L119.583 279L122.981 279.689Z" fill="#2C8BE8"/>
<path d="M118.179 279.046L114.619 289.688L110.937 288.46L111.339 286.733L111.162 286.674C110.619 287.164 109.979 287.462 109.244 287.568C108.504 287.686 107.72 287.607 106.893 287.332C106 287.034 105.294 286.594 104.774 286.012C104.24 285.425 103.95 284.701 103.903 283.838L103.706 283.772C103.018 284.434 102.269 284.819 101.459 284.929C100.644 285.052 99.7908 284.964 98.898 284.667C97.9791 284.36 97.2507 283.92 96.713 283.347C96.1752 282.773 95.8587 282.062 95.7635 281.212C95.6551 280.359 95.792 279.36 96.1744 278.217L98.132 272.364L101.972 273.644L100.179 279.004C100.008 279.517 99.9174 279.983 99.9081 280.404C99.8813 280.833 99.9684 281.205 100.169 281.52C100.37 281.835 100.733 282.081 101.259 282.256C101.744 282.417 102.2 282.452 102.624 282.36C103.036 282.264 103.395 282.062 103.702 281.756C104.009 281.449 104.244 281.053 104.406 280.567L106.245 275.069L110.065 276.342L108.273 281.702C108.101 282.215 108.011 282.681 108.002 283.101C107.975 283.53 108.068 283.905 108.283 284.224C108.497 284.544 108.86 284.789 109.372 284.96C109.857 285.122 110.308 285.148 110.724 285.038C111.136 284.942 111.495 284.74 111.802 284.434C112.109 284.127 112.341 283.737 112.5 283.264L114.339 277.766L118.179 279.046Z" fill="#2C8BE8"/>
<path d="M97.0138 271.441L92.3611 281.654L88.677 279.979L93.3298 269.766L97.0138 271.441ZM91.8269 282.827L90.7326 285.228L87.0486 283.553L88.1428 281.151L91.8269 282.827Z" fill="#2C8BE8"/>
<path d="M91.5784 269.097L86.1103 278.898L82.7025 276.999L83.4464 275.367L83.2833 275.276C82.6774 275.652 81.9698 275.813 81.1606 275.759C80.3325 275.71 79.568 275.49 78.8671 275.099C78.2266 274.742 77.6965 274.343 77.2767 273.903C76.8448 273.456 76.5428 272.947 76.3707 272.375C76.1919 271.815 76.1651 271.182 76.2905 270.474C76.4091 269.779 76.708 269.002 77.1873 268.143L80.1948 262.752L83.7295 264.722L81.0765 269.477C80.7794 270.01 80.5867 270.497 80.4983 270.94C80.391 271.388 80.425 271.795 80.6003 272.163C80.7567 272.535 81.0887 272.863 81.5963 273.146C82.0796 273.416 82.5573 273.539 83.0293 273.517C83.4945 273.506 83.9284 273.367 84.331 273.1C84.7269 272.845 85.0565 272.481 85.3198 272.009L88.0437 267.127L91.5784 269.097Z" fill="#2C8BE8"/>
<path d="M74.8527 259.074C75.3892 259.441 75.7984 259.848 76.0804 260.293C76.3546 260.749 76.4787 261.229 76.4528 261.732C76.4269 262.235 76.226 262.761 75.8501 263.309L72.8783 267.648L74.539 268.786L72.824 271.289L71.1634 270.152L69.6246 272.398L65.9318 270.776L67.8934 267.912L65.6507 266.376L67.3656 263.872L69.6084 265.408L71.8284 262.167C72.0085 261.904 72.0767 261.682 72.0331 261.501C71.9702 261.324 71.8018 261.141 71.5279 260.954L70.0555 259.945L71.9936 257.116L74.8527 259.074Z" fill="#2C8BE8"/>
<path d="M58.5575 245.815L52.8051 251.645L54.1631 252.987L52.0314 255.147L50.6735 253.805L50.3085 254.175C49.4714 255.023 48.5924 255.373 47.6716 255.223C46.7508 255.073 45.7639 254.477 44.711 253.437L43.1464 251.891L44.9714 250.042L46.0932 251.15C46.3392 251.393 46.5846 251.528 46.8295 251.556C47.0645 251.574 47.289 251.474 47.5032 251.257L47.7952 250.961L46.0682 249.255L48.1998 247.095L49.9268 248.801L55.6792 242.971L58.5575 245.815Z" fill="#DA4C66"/>
<path d="M53.3328 240.529L45.0259 248.078L42.3071 245.082L50.614 237.532L53.3328 240.529ZM44.0722 248.945L42.1185 250.721L39.3997 247.724L41.3533 245.949L44.0722 248.945Z" fill="#DA4C66"/>
<path d="M46.3083 232.36C46.7145 232.868 46.9878 233.376 47.1281 233.884C47.2577 234.401 47.237 234.896 47.066 235.37C46.8951 235.844 46.5502 236.289 46.0313 236.705L41.9286 239.995L43.1861 241.567L40.8186 243.466L39.561 241.894L37.4366 243.598L34.3766 240.971L37.0847 238.8L35.3864 236.677L37.7539 234.779L39.4523 236.901L42.5172 234.443C42.7658 234.244 42.8956 234.051 42.9065 233.865C42.8979 233.677 42.7899 233.453 42.5824 233.194L41.4675 231.8L44.1432 229.655L46.3083 232.36Z" fill="#DA4C66"/>
<path d="M43.0138 228.756L33.4771 234.675L31.4355 231.375L32.8493 230.302L32.751 230.143C32.0202 230.173 31.3388 229.994 30.7069 229.605C30.0632 229.223 29.512 228.661 29.0535 227.92C28.5585 227.12 28.2976 226.329 28.2706 225.548C28.2363 224.755 28.4769 224.012 28.9924 223.317L28.8832 223.141C27.9321 223.21 27.1106 223.028 26.4187 222.594C25.715 222.168 25.1157 221.555 24.6208 220.755C24.1113 219.931 23.8335 219.127 23.7875 218.341C23.7414 217.556 23.9535 216.805 24.4235 216.09C24.8863 215.364 25.6299 214.682 26.6542 214.047L31.8994 210.791L34.0284 214.232L29.2247 217.214C28.7655 217.499 28.398 217.8 28.1221 218.118C27.8271 218.431 27.6559 218.774 27.6086 219.145C27.5613 219.516 27.6833 219.937 27.9744 220.408C28.2437 220.843 28.5708 221.161 28.9557 221.362C29.3333 221.551 29.7379 221.625 30.1695 221.585C30.6011 221.545 31.0347 221.39 31.4703 221.12L36.3976 218.062L38.5157 221.486L33.712 224.467C33.2528 224.752 32.8853 225.053 32.6093 225.371C32.3143 225.684 32.1468 226.032 32.1068 226.416C32.0668 226.799 32.1887 227.22 32.4726 227.678C32.7419 228.114 33.0712 228.422 33.4606 228.604C33.8383 228.793 34.2429 228.867 34.6744 228.827C35.106 228.788 35.5337 228.636 35.9576 228.373L40.8848 225.315L43.0138 228.756Z" fill="#DA4C66"/>
<path d="M31.7171 209.559L21.6221 214.463L19.8599 210.82L29.9548 205.916L31.7171 209.559ZM20.4631 215.026L18.0889 216.179L16.3266 212.536L18.7008 211.383L20.4631 215.026Z" fill="#DA4C66"/>
<path d="M28.9555 204.112L18.4939 208.172L17.0887 204.532L18.7024 203.749L18.6352 203.575C17.9294 203.478 17.283 203.15 16.696 202.591C16.0911 202.024 15.6441 201.367 15.3551 200.618C15.091 199.934 14.9382 199.288 14.8968 198.681C14.8504 198.061 14.9437 197.475 15.1767 196.925C15.3968 196.379 15.7809 195.874 16.329 195.409C16.8643 194.949 17.5904 194.541 18.5074 194.185L24.2612 191.952L25.7189 195.728L20.6431 197.697C20.0748 197.918 19.6154 198.171 19.2648 198.455C18.8964 198.732 18.6622 199.067 18.5622 199.462C18.4443 199.85 18.4901 200.314 18.6994 200.856C18.8987 201.373 19.1868 201.773 19.5638 202.057C19.9279 202.346 20.35 202.516 20.8301 202.568C21.2973 202.624 21.7828 202.554 22.2865 202.359L27.4979 200.336L28.9555 204.112Z" fill="#DA4C66"/>
<path d="M22.5813 185.959C22.7598 186.585 22.8156 187.159 22.7488 187.682C22.6687 188.209 22.4583 188.658 22.1178 189.03C21.7772 189.401 21.2874 189.679 20.6484 189.863L15.5959 191.315L16.1484 193.251L13.2328 194.089L12.6803 192.152L10.0642 192.904L8.25736 189.298L11.5924 188.34L10.8462 185.725L13.7619 184.887L14.508 187.502L18.2824 186.417C18.5886 186.329 18.7826 186.201 18.8645 186.034C18.9292 185.857 18.916 185.609 18.8249 185.289L18.335 183.573L21.6301 182.626L22.5813 185.959Z" fill="#DA4C66"/>
<path d="M19.1554 170.14L11.045 171.241L11.2983 173.135L8.29292 173.542L8.03966 171.649L7.52504 171.719C6.34485 171.879 5.43668 171.618 4.80054 170.936C4.1644 170.254 3.74815 169.179 3.55178 167.711L3.25998 165.53L5.83307 165.18L6.04229 166.745C6.08817 167.088 6.19943 167.345 6.37608 167.516C6.55089 167.674 6.78925 167.733 7.09116 167.692L7.50286 167.636L7.18078 165.228L10.1862 164.82L10.5082 167.228L18.6186 166.127L19.1554 170.14Z" fill="#189944"/>
<path d="M18.2168 162.457L7.03366 163.322L6.72905 159.284L17.9122 158.419L18.2168 162.457ZM5.74967 163.421L3.11956 163.624L2.81495 159.586L5.44506 159.383L5.74967 163.421Z" fill="#189944"/>
<path d="M17.6793 151.975C17.6907 152.626 17.5968 153.195 17.3976 153.684C17.1846 154.173 16.8658 154.553 16.4412 154.824C16.0167 155.095 15.4722 155.237 14.8077 155.25L9.55405 155.352L9.58926 157.366L6.55752 157.424L6.52231 155.41L3.80206 155.463L2.98518 151.511L6.45299 151.444L6.40544 148.724L9.43717 148.665L9.48472 151.386L13.4094 151.31C13.7278 151.304 13.9481 151.23 14.0702 151.089C14.1783 150.935 14.2295 150.692 14.2237 150.359L14.1924 148.574L17.6187 148.507L17.6793 151.975Z" fill="#189944"/>
<path d="M17.2844 146.525L6.13209 145.361L6.54303 141.498L8.31607 141.516L8.33584 141.33C7.74059 140.906 7.31291 140.346 7.05279 139.651C6.77891 138.954 6.68811 138.172 6.78041 137.304C6.88003 136.368 7.15849 135.582 7.61579 134.948C8.07455 134.3 8.72006 133.859 9.55232 133.625L9.57429 133.419C8.78131 132.89 8.24465 132.243 7.96432 131.475C7.67023 130.707 7.57299 129.854 7.67261 128.918C7.77516 127.954 8.04894 127.147 8.49393 126.497C8.93892 125.848 9.56598 125.384 10.3751 125.107C11.1857 124.815 12.1899 124.732 13.3877 124.857L19.5215 125.497L19.093 129.525L13.4755 128.939C12.9385 128.883 12.4638 128.896 12.0514 128.978C11.6266 129.045 11.2818 129.211 11.017 129.476C10.7521 129.741 10.5904 130.148 10.5318 130.699C10.4776 131.209 10.5409 131.661 10.7216 132.056C10.9038 132.437 11.1774 132.744 11.5424 132.977C11.9074 133.21 12.3446 133.353 12.8541 133.406L18.6161 134.008L18.1898 138.015L12.5723 137.428C12.0354 137.372 11.5606 137.385 11.1482 137.468C10.7234 137.535 10.3779 137.708 10.1116 137.986C9.8453 138.265 9.68359 138.672 9.62645 139.209C9.57224 139.719 9.64313 140.165 9.8391 140.547C10.0213 140.928 10.2949 141.235 10.6599 141.468C11.0249 141.701 11.4552 141.844 11.9509 141.896L17.7129 142.497L17.2844 146.525Z" fill="#189944"/>
<path d="M20.1809 124.102L9.22015 121.747L10.0765 117.787L21.0372 120.142L20.1809 124.102ZM7.96169 121.477L5.38388 120.923L6.2402 116.963L8.81801 117.517L7.96169 121.477Z" fill="#189944"/>
<path d="M21.3235 118.222L10.5869 115L11.7138 111.26L13.4656 111.634L13.5196 111.455C13.023 110.944 12.7149 110.288 12.5953 109.485C12.4665 108.665 12.5179 107.871 12.7497 107.102C12.9615 106.399 13.2375 105.795 13.5776 105.289C13.9218 104.771 14.3546 104.365 14.8761 104.073C15.3844 103.778 15.9972 103.614 16.7147 103.584C17.4188 103.549 18.2415 103.673 19.1826 103.955L25.0877 105.727L23.9189 109.607L18.7096 108.044C18.1264 107.869 17.6094 107.786 17.1585 107.795C16.6984 107.787 16.3077 107.909 15.9865 108.16C15.656 108.393 15.4068 108.788 15.239 109.345C15.0791 109.876 15.0606 110.369 15.1833 110.826C15.2927 111.278 15.5209 111.672 15.8679 112.007C16.2016 112.339 16.6269 112.582 17.1439 112.737L22.4923 114.342L21.3235 118.222Z" fill="#189944"/>
<path d="M27.3344 100.212C27.0912 100.816 26.7828 101.305 26.4091 101.677C26.0225 102.044 25.5811 102.27 25.0847 102.354C24.5884 102.439 24.032 102.357 23.4157 102.109L18.543 100.152L17.7901 102.022L14.9781 100.893L15.731 99.0228L13.208 98.0094L13.9971 94.0489L17.2135 95.3408L18.2303 92.8155L21.0423 93.9449L20.0255 96.4703L23.6656 97.9324C23.9609 98.051 24.1922 98.0693 24.3595 97.9872C24.5192 97.887 24.6611 97.6828 24.7853 97.3743L25.4528 95.7165L28.6307 96.9929L27.3344 100.212Z" fill="#189944"/>
<path d="M34.3336 85.5302L27.2665 81.4182L26.3043 83.0706L23.6855 81.5469L24.6477 79.8944L24.1993 79.6335C23.1709 79.0351 22.6153 78.271 22.5324 77.341C22.4495 76.4111 22.7811 75.3054 23.5272 74.0242L24.6358 72.1202L26.8779 73.4248L26.083 74.7899C25.9087 75.0893 25.8385 75.361 25.8724 75.6052C25.9133 75.8374 26.0653 76.03 26.3284 76.1831L26.6871 76.3918L27.9108 74.2903L30.5295 75.8141L29.3059 77.9156L36.373 82.0276L34.3336 85.5302Z" fill="#E69C14"/>
<path d="M38.0982 79.1854L28.7386 73.0239L30.9676 69.6386L40.3272 75.8001L38.0982 79.1854ZM27.6639 72.3165L25.4627 70.8674L27.6917 67.4821L29.8929 68.9312L27.6639 72.3165Z" fill="#E69C14"/>
<path d="M44.4697 70.02C44.0785 70.5408 43.6543 70.9327 43.197 71.1958C42.7288 71.4506 42.2441 71.5544 41.7432 71.5073C41.2422 71.4602 40.7263 71.2371 40.1955 70.8382L35.9986 67.6842L34.7875 69.2962L32.3657 67.4761L33.5768 65.8641L31.4037 64.231L33.1913 60.608L35.9615 62.6899L37.5971 60.5128L40.019 62.3329L38.3834 64.51L41.5186 66.8661C41.7729 67.0573 41.9915 67.1349 42.1743 67.0989C42.3543 67.0435 42.5442 66.8828 42.744 66.6169L43.8177 65.1877L46.5548 67.2447L44.4697 70.02Z" fill="#E69C14"/>
<path d="M47.1698 65.8794L39.0853 58.1213L41.7751 55.3149L43.1627 56.4161L43.2922 56.281C43.0824 55.5803 43.0879 54.8749 43.3086 54.1648C43.5194 53.4451 43.9268 52.7701 44.531 52.1398C45.183 51.4595 45.8837 51.0083 46.6331 50.7863C47.392 50.5543 48.1712 50.6009 48.9706 50.9264L49.1145 50.7763C48.8125 49.8719 48.7859 49.03 49.0346 48.2508C49.2734 47.4619 49.7188 46.7273 50.3708 46.047C51.0421 45.3467 51.7522 44.8757 52.5011 44.6341C53.2501 44.3924 54.0287 44.4097 54.8369 44.686C55.6548 44.9522 56.4979 45.502 57.3662 46.3353L61.8127 50.6023L59.0078 53.5287L54.9356 49.6208C54.5464 49.2473 54.1639 48.9667 53.7881 48.7789C53.412 48.5716 53.0384 48.4916 52.6673 48.5389C52.2963 48.5862 51.919 48.8099 51.5354 49.2101C51.1806 49.5803 50.9536 49.977 50.8544 50.4004C50.7647 50.8138 50.7925 51.2246 50.9377 51.6328C51.0829 52.0411 51.3402 52.4224 51.7095 52.7768L55.8865 56.7852L53.096 59.6965L49.0238 55.7887C48.6345 55.4152 48.252 55.1345 47.8763 54.9468C47.5002 54.7395 47.1218 54.6645 46.7411 54.7218C46.3605 54.7791 45.9832 55.0028 45.6092 55.393C45.2544 55.7631 45.0372 56.1597 44.9575 56.5827C44.8679 56.996 44.8957 57.4068 45.0409 57.8151C45.1861 58.2233 45.4384 58.5999 45.7977 58.9447L49.9747 62.9531L47.1698 65.8794Z" fill="#E69C14"/>
<path d="M63.0487 50.0214L55.8268 41.4543L58.9235 38.8387L66.1454 47.4058L63.0487 50.0214ZM54.9977 40.4706L53.2992 38.4558L56.3959 35.8402L58.0943 37.8551L54.9977 40.4706Z" fill="#E69C14"/>
<path d="M67.1247 46.3727L60.5801 37.2773L63.7493 34.991L64.9096 36.3544L65.0613 36.245C64.9787 35.537 65.1342 34.8278 65.5278 34.1173C65.9246 33.3876 66.449 32.7876 67.1008 32.3174C67.6964 31.8877 68.2828 31.5756 68.8598 31.381C69.4481 31.1784 70.0376 31.1199 70.6284 31.2054C71.2111 31.2797 71.796 31.5231 72.3829 31.9355C72.9618 32.3366 73.5381 32.9358 74.1118 33.7331L77.7113 38.7356L74.4241 41.107L71.2487 36.694C70.8932 36.1999 70.534 35.8194 70.1712 35.5524C69.8115 35.266 69.4281 35.1247 69.021 35.1284C68.6171 35.1127 68.1791 35.2751 67.7071 35.6156C67.2576 35.9399 66.9425 36.3207 66.7621 36.7579C66.5735 37.1839 66.5146 37.6358 66.5852 38.1137C66.6478 38.5803 66.8366 39.0325 67.1518 39.4704L70.412 44.0013L67.1247 46.3727Z" fill="#E69C14"/>
<path d="M83.1139 35.5282C82.5531 35.8594 82.0113 36.0588 81.4884 36.1266C80.9585 36.1824 80.4715 36.0924 80.0273 35.8567C79.583 35.621 79.1925 35.2169 78.8557 34.6446L76.1927 30.1198L74.4566 31.145L72.9199 28.5338L74.6559 27.5087L73.2771 25.1658L76.3166 22.5033L78.0743 25.4901L80.4189 24.1056L81.9557 26.7167L79.6111 28.1012L81.6004 31.4814C81.7618 31.7556 81.9338 31.9112 82.1162 31.948C82.3036 31.9659 82.5405 31.8903 82.8268 31.7212L84.366 30.8123L86.1028 33.7632L83.1139 35.5282Z" fill="#E69C14"/>
<path d="M97.6239 28.093L94.5365 20.5206L92.7673 21.2456L91.6233 18.4396L93.3924 17.7146L93.1965 17.2342C92.7472 16.1323 92.7733 15.187 93.2746 14.3984C93.776 13.6097 94.7125 12.9343 96.0842 12.3722L98.1226 11.537L99.1021 13.9394L97.6406 14.5382C97.3201 14.6696 97.0989 14.8425 96.9769 15.057C96.8677 15.2662 96.8705 15.5118 96.9855 15.7936L97.1422 16.178L99.3921 15.2561L100.536 18.0621L98.2863 18.984L101.374 26.5564L97.6239 28.093Z" fill="#DF742C"/>
<path d="M104.635 25.2854L100.994 14.6845L104.824 13.3612L108.465 23.9621L104.635 25.2854ZM100.576 13.4674L99.7197 10.9742L103.55 9.6509L104.406 12.1441L100.576 13.4674Z" fill="#DF742C"/>
<path d="M114.77 22.0404C114.143 22.2154 113.568 22.2682 113.046 22.1985C112.52 22.1155 112.072 21.9026 111.704 21.56C111.336 21.2173 111.064 20.7259 110.886 20.0858L109.483 15.0246L107.542 15.5666L106.733 12.6459L108.674 12.1039L107.948 9.48333L111.571 7.69593L112.496 11.0367L115.118 10.3047L115.928 13.2254L113.306 13.9574L114.354 17.7383C114.439 18.045 114.565 18.2398 114.731 18.3225C114.908 18.3883 115.156 18.3764 115.476 18.287L117.197 17.8065L118.112 21.1072L114.77 22.0404Z" fill="#DF742C"/>
<path d="M119.594 20.328L117.937 9.23915L121.778 8.65767L122.203 10.3783L122.388 10.3503C122.65 9.66665 123.085 9.1108 123.693 8.68274C124.299 8.24098 125.033 7.95481 125.896 7.82421C126.827 7.68324 127.657 7.75363 128.385 8.03538C129.127 8.31505 129.715 8.82805 130.148 9.57439L130.354 9.5433C130.667 8.64187 131.16 7.95826 131.833 7.49245C132.503 7.01295 133.304 6.70272 134.235 6.56175C135.194 6.41664 136.043 6.47708 136.783 6.74306C137.523 7.00904 138.128 7.4984 138.599 8.21114C139.083 8.92181 139.414 9.87266 139.592 11.0637L140.503 17.1626L136.498 17.7689L135.663 12.1834C135.584 11.6495 135.452 11.1934 135.27 10.815C135.099 10.4209 134.852 10.1292 134.53 9.94005C134.208 9.75085 133.773 9.69771 133.225 9.78063C132.718 9.85733 132.296 10.0332 131.959 10.3082C131.636 10.5811 131.407 10.9238 131.273 11.3361C131.138 11.7485 131.109 12.2079 131.185 12.7144L132.041 18.4437L128.056 19.0469L127.221 13.4614C127.142 12.9275 127.011 12.4714 126.828 12.093C126.657 11.6989 126.404 11.4083 126.068 11.2212C125.732 11.034 125.296 10.9809 124.762 11.0617C124.256 11.1384 123.842 11.3201 123.521 11.6067C123.197 11.8797 122.968 12.2223 122.834 12.6347C122.7 13.047 122.669 13.4996 122.743 13.9924L123.599 19.7217L119.594 20.328Z" fill="#DF742C"/>
<path d="M142.414 17.4086L141.958 6.20377L146.005 6.03179L146.46 17.2367L142.414 17.4086ZM141.906 4.91729L141.799 2.28207L145.846 2.11009L145.953 4.7453L141.906 4.91729Z" fill="#DF742C"/>
<path d="M148.797 17.0243L149.249 5.81764L153.15 5.96854L153.224 7.75892L153.41 7.76614C153.781 7.15693 154.34 6.69356 155.088 6.37603C155.849 6.04521 156.631 5.89531 157.434 5.92635C158.167 5.95471 158.82 6.07005 159.394 6.27239C159.982 6.47525 160.482 6.79251 160.894 7.22416C161.306 7.64197 161.617 8.19439 161.824 8.88142C162.033 9.55462 162.117 10.3824 162.078 11.3647L161.829 17.5283L157.782 17.3718L158.002 11.9345C158.026 11.3258 157.978 10.8043 157.857 10.37C157.75 9.92247 157.536 9.57468 157.213 9.32663C156.905 9.06529 156.46 8.92338 155.879 8.90091C155.326 8.87951 154.844 8.98556 154.433 9.21908C154.022 9.43877 153.697 9.75877 153.458 10.1791C153.22 10.5856 153.09 11.0586 153.069 11.5982L152.843 17.1808L148.797 17.0243Z" fill="#DF742C"/>
<path d="M167.349 18.2585C166.704 18.1759 166.154 18.0008 165.7 17.7333C165.248 17.4521 164.919 17.0819 164.714 16.6228C164.508 16.1636 164.448 15.6045 164.533 14.9452L165.209 9.73317L163.211 9.47752L163.6 6.46978L165.598 6.72542L165.948 4.0267L169.978 3.78845L169.532 7.22881L172.23 7.57407L171.84 10.5818L169.142 10.2366L168.638 14.1301C168.597 14.446 168.637 14.6746 168.758 14.8157C168.895 14.9449 169.128 15.0306 169.458 15.0728L171.229 15.2994L170.789 18.6986L167.349 18.2585Z" fill="#DF742C"/>
<path d="M183.468 21.3135L185.681 13.4317L183.841 12.9176L184.661 9.99694L186.501 10.511L186.641 10.0109C186.963 8.86395 187.564 8.13286 188.443 7.81762C189.322 7.50237 190.474 7.54404 191.901 7.94262L194.02 8.53491L193.318 11.0355L191.798 10.6108C191.465 10.5177 191.185 10.5184 190.957 10.613C190.742 10.7112 190.594 10.9071 190.511 11.2005L190.399 11.6006L192.738 12.2543L191.918 15.175L189.579 14.5213L187.366 22.4031L183.468 21.3135Z" fill="#DA4C66"/>
<path d="M190.818 23.4365L194.458 12.8219L198.288 14.1307L194.649 24.7453L190.818 23.4365ZM194.876 11.6031L195.732 9.10675L199.562 10.4156L198.706 12.912L194.876 11.6031Z" fill="#DA4C66"/>
<path d="M200.722 27.0788C200.121 26.8319 199.635 26.5204 199.266 26.1443C198.903 25.7554 198.681 25.3125 198.601 24.8155C198.521 24.3185 198.608 23.7625 198.861 23.1475L200.861 18.285L198.998 17.5206L200.152 14.7146L202.015 15.479L203.051 12.9613L207.003 13.7745L205.682 16.9841L208.198 18.0164L207.044 20.8224L204.528 19.7901L203.034 23.4225C202.913 23.7172 202.892 23.9485 202.973 24.1163C203.072 24.2766 203.275 24.4198 203.582 24.5459L205.233 25.2236L203.929 28.3947L200.722 27.0788Z" fill="#DA4C66"/>
<path d="M205.734 28.7762L211.238 18.9949L214.621 20.8969L213.899 22.5179L214.062 22.6094C214.688 22.2302 215.372 22.0585 216.114 22.0941C216.863 22.1177 217.617 22.343 218.377 22.7702C219.197 23.2313 219.808 23.797 220.208 24.4674C220.621 25.1445 220.769 25.9112 220.652 26.7676L220.833 26.8693C221.633 26.3496 222.442 26.1125 223.257 26.1579C224.08 26.1912 224.901 26.4384 225.721 26.8995C226.566 27.3741 227.197 27.944 227.617 28.609C228.036 29.2741 228.213 30.0329 228.146 30.8854C228.091 31.7448 227.768 32.6997 227.176 33.7503L224.149 39.13L220.622 37.1467L223.394 32.2198C223.659 31.7489 223.836 31.3078 223.925 30.8966C224.032 30.4801 224.017 30.098 223.879 29.7503C223.741 29.4026 223.431 29.0932 222.949 28.822C222.503 28.5711 222.062 28.4507 221.628 28.4608C221.206 28.4778 220.815 28.6078 220.456 28.851C220.097 29.0942 219.792 29.4392 219.54 29.886L216.696 34.9397L213.187 32.9666L215.96 28.0397C216.225 27.5687 216.401 27.1277 216.49 26.7164C216.597 26.2999 216.576 25.9144 216.426 25.56C216.276 25.2055 215.966 24.8961 215.496 24.6316C215.05 24.3808 214.612 24.2698 214.183 24.2988C213.761 24.3157 213.37 24.4458 213.011 24.689C212.652 24.9322 212.35 25.2711 212.106 25.7059L209.262 30.7595L205.734 28.7762Z" fill="#DA4C66"/>
<path d="M225.12 40.2463L231.631 31.1031L234.927 33.4505L228.416 42.5936L225.12 40.2463ZM232.379 30.0533L233.91 27.903L237.206 30.2503L235.675 32.4007L232.379 30.0533Z" fill="#DA4C66"/>
<path d="M229.677 43.3037L236.867 34.6841L239.862 37.184L238.829 38.6498L238.972 38.7695C239.637 38.5123 240.362 38.4855 241.146 38.6893C241.951 38.8914 242.661 39.2495 243.277 39.7636C243.84 40.2335 244.286 40.7237 244.617 41.2344C244.958 41.7539 245.16 42.3107 245.223 42.9048C245.295 43.4882 245.204 44.116 244.949 44.7881C244.704 45.4496 244.266 46.1581 243.635 46.9137L239.681 51.6544L236.574 49.0615L240.063 44.8794C240.454 44.4111 240.733 43.9677 240.902 43.5492C241.091 43.1289 241.133 42.7219 241.029 42.3283C240.945 41.9328 240.68 41.5489 240.234 41.1766C239.809 40.822 239.363 40.6119 238.895 40.5464C238.436 40.4702 237.984 40.5262 237.539 40.7142C237.103 40.8916 236.711 41.1878 236.365 41.6028L232.783 45.8967L229.677 43.3037Z" fill="#DA4C66"/>
<path d="M244.702 56.6758C244.245 56.2138 243.92 55.7376 243.727 55.2472C243.543 54.7471 243.512 54.2524 243.632 53.7631C243.752 53.2739 244.048 52.7951 244.52 52.3267L248.255 48.6235L246.839 47.1934L248.994 45.0563L250.41 46.4865L252.343 44.569L255.663 46.8582L253.199 49.3025L255.111 51.234L252.956 53.371L251.044 51.4396L248.254 54.206C248.027 54.4304 247.919 54.6357 247.927 54.8218C247.956 55.008 248.087 55.219 248.32 55.4549L249.576 56.7229L247.141 59.138L244.702 56.6758Z" fill="#DA4C66"/>
<path d="M258.112 72.5913L264.857 67.9465L263.776 66.3728L266.276 64.6516L267.356 66.2254L267.784 65.9306C268.766 65.2547 269.695 65.0772 270.57 65.3979C271.446 65.7186 272.303 66.489 273.141 67.7093L274.386 69.5225L272.246 70.9961L271.353 69.696C271.158 69.4109 270.942 69.2318 270.707 69.1586C270.48 69.0968 270.24 69.1523 269.989 69.3252L269.647 69.561L271.021 71.5624L268.522 73.2835L267.147 71.2822L260.402 75.9269L258.112 72.5913Z" fill="#2C8BE8"/>
<path d="M262.235 78.7151L271.814 72.8665L273.918 76.3234L264.338 82.1719L262.235 78.7151ZM272.914 72.195L275.167 70.8195L277.271 74.2764L275.018 75.6519L272.914 72.195Z" fill="#2C8BE8"/>
<path d="M267.462 87.7746C267.158 87.2002 266.984 86.6502 266.94 86.1248C266.909 85.5928 267.022 85.1097 267.278 84.6757C267.534 84.2416 267.955 83.8683 268.542 83.5557L273.184 81.0847L272.241 79.3063L274.919 77.8804L275.862 79.6588L278.266 78.3793L280.783 81.5295L277.719 83.1606L278.993 85.5624L276.315 86.9883L275.041 84.5865L271.573 86.4325C271.292 86.5822 271.129 86.7475 271.084 86.9284C271.057 87.1149 271.122 87.3548 271.277 87.6482L272.113 89.2249L269.086 90.8364L267.462 87.7746Z" fill="#2C8BE8"/>
<path d="M270.204 92.247L280.681 88.226L282.065 91.8522L280.475 92.6402L280.542 92.8147C281.265 92.9225 281.9 93.2271 282.448 93.7285C283.008 94.2249 283.444 94.8803 283.754 95.6947C284.09 96.5738 284.198 97.3995 284.077 98.172C283.962 98.9573 283.586 99.6426 282.949 100.228L283.023 100.422C283.97 100.533 284.742 100.866 285.34 101.422C285.951 101.973 286.424 102.688 286.76 103.567C287.105 104.472 287.227 105.315 287.124 106.095C287.022 106.876 286.673 107.573 286.077 108.187C285.485 108.814 284.627 109.344 283.502 109.776L277.74 111.987L276.296 108.206L281.574 106.18C282.078 105.987 282.496 105.76 282.826 105.5C283.175 105.247 283.407 104.943 283.523 104.587C283.64 104.231 283.599 103.795 283.402 103.278C283.219 102.8 282.958 102.426 282.617 102.156C282.282 101.899 281.899 101.75 281.468 101.708C281.037 101.666 280.582 101.737 280.103 101.92L274.69 103.998L273.254 100.236L278.531 98.2107C279.036 98.0171 279.453 97.7902 279.784 97.5299C280.132 97.2775 280.362 96.967 280.474 96.5982C280.585 96.2294 280.544 95.7929 280.352 95.2887C280.169 94.8104 279.904 94.4454 279.556 94.1937C279.221 93.937 278.837 93.7877 278.406 93.7457C277.975 93.7037 277.526 93.772 277.061 93.9508L271.648 96.0282L270.204 92.247Z" fill="#2C8BE8"/>
<path d="M277.687 113.202L288.527 110.308L289.564 114.221L278.724 117.115L277.687 113.202ZM289.772 109.976L292.321 109.295L293.358 113.208L290.809 113.889L289.772 109.976Z" fill="#2C8BE8"/>
<path d="M279.365 119.038L290.401 117.019L291.096 120.86L289.364 121.325L289.397 121.509C290.072 121.737 290.645 122.181 291.116 122.841C291.603 123.511 291.918 124.242 292.061 125.032C292.192 125.753 292.22 126.417 292.147 127.021C292.076 127.639 291.874 128.197 291.541 128.694C291.223 129.188 290.751 129.612 290.125 129.966C289.513 130.317 288.723 130.581 287.756 130.758L281.686 131.868L280.966 127.884L286.32 126.905C286.919 126.795 287.418 126.634 287.816 126.42C288.229 126.218 288.523 125.932 288.695 125.563C288.884 125.205 288.926 124.74 288.823 124.168C288.724 123.623 288.516 123.175 288.2 122.825C287.897 122.473 287.514 122.226 287.053 122.085C286.604 121.942 286.115 121.919 285.583 122.016L280.086 123.022L279.365 119.038Z" fill="#2C8BE8"/>
<path d="M282.242 138.315C282.185 137.667 282.24 137.092 282.404 136.591C282.583 136.089 282.875 135.687 283.28 135.387C283.684 135.087 284.218 134.908 284.88 134.849L290.114 134.383L289.94 132.376L292.96 132.108L293.135 134.114L295.846 133.873L296.934 137.758L293.479 138.065L293.715 140.775L290.694 141.044L290.458 138.334L286.548 138.682C286.231 138.71 286.016 138.799 285.904 138.948C285.807 139.11 285.773 139.356 285.801 139.687L285.956 141.466L282.543 141.77L282.242 138.315Z" fill="#2C8BE8"/>
</svg>