<svg xmlns:xlink="http://www.w3.org/1999/xlink" xmlns="http://www.w3.org/2000/svg" width="109" height="24" viewBox="0 0 109 24" fill="none">
<path d="M36.0602 18.9999V11.1199H34.2202V8.19992H36.0602V7.69992C36.0602 6.55326 36.4269 5.71992 37.1602 5.19992C37.8935 4.67992 38.9735 4.41992 40.4002 4.41992H42.5202V6.91992H41.0002C40.6669 6.91992 40.4069 6.99326 40.2202 7.13992C40.0469 7.28659 39.9602 7.50659 39.9602 7.79992V8.19992H42.3002V11.1199H39.9602V18.9999H36.0602Z" fill="white"/>
<path d="M43.6702 18.9999V8.19992H47.5702V18.9999H43.6702ZM43.6702 6.95992V4.41992H47.5702V6.95992H43.6702Z" fill="white"/>
<path d="M53.9319 18.9999C53.3053 18.9999 52.7586 18.8999 52.2919 18.6999C51.8253 18.4866 51.4653 18.1733 51.2119 17.7599C50.9586 17.3466 50.8319 16.8199 50.8319 16.1799V11.1199H48.8919V8.19992H50.8319V5.57992L54.6519 4.85992V8.19992H57.2719V11.1199H54.6519V14.8999C54.6519 15.2066 54.7186 15.4199 54.8519 15.5399C54.9986 15.6466 55.2319 15.6999 55.5519 15.6999H57.2719V18.9999H53.9319Z" fill="white"/>
<path d="M58.6507 18.9999V8.19992H62.3907L62.5507 9.89992H62.7307C63.0774 9.28659 63.5707 8.81992 64.2107 8.49992C64.8507 8.16659 65.5907 7.99992 66.4307 7.99992C67.3373 7.99992 68.1173 8.18659 68.7707 8.55992C69.4374 8.93326 69.924 9.50659 70.2307 10.2799H70.4307C70.8573 9.46659 71.424 8.88659 72.1307 8.53992C72.8374 8.17992 73.644 7.99992 74.5507 7.99992C75.484 7.99992 76.284 8.17992 76.9507 8.53992C77.6174 8.89992 78.124 9.45326 78.4707 10.1999C78.8307 10.9466 79.0107 11.8999 79.0107 13.0599V18.9999H75.1107V13.5599C75.1107 13.0399 75.0507 12.5866 74.9307 12.1999C74.824 11.7999 74.6307 11.4866 74.3507 11.2599C74.0707 11.0333 73.664 10.9199 73.1307 10.9199C72.6374 10.9199 72.2107 11.0266 71.8507 11.2399C71.504 11.4533 71.2373 11.7466 71.0507 12.1199C70.864 12.4933 70.7707 12.9266 70.7707 13.4199V18.9999H66.8907V13.5599C66.8907 13.0399 66.8307 12.5866 66.7107 12.1999C66.604 11.7999 66.404 11.4866 66.1107 11.2599C65.8173 11.0333 65.4107 10.9199 64.8907 10.9199C64.3974 10.9199 63.9774 11.0333 63.6307 11.2599C63.284 11.4733 63.0174 11.7666 62.8307 12.1399C62.644 12.5133 62.5507 12.9399 62.5507 13.4199V18.9999H58.6507Z" fill="white"/>
<path d="M80.8577 18.9999V8.19992H84.7577V18.9999H80.8577ZM80.8577 6.95992V4.41992H84.7577V6.95992H80.8577Z" fill="white"/>
<path d="M86.6194 18.9999V8.19992H90.3794L90.5194 9.91992H90.6994C91.0328 9.31992 91.5528 8.85326 92.2594 8.51992C92.9794 8.17326 93.7261 7.99992 94.4994 7.99992C95.2061 7.99992 95.8394 8.08659 96.3994 8.25992C96.9728 8.43326 97.4661 8.71992 97.8794 9.11992C98.2928 9.50659 98.6128 10.0266 98.8394 10.6799C99.0661 11.3199 99.1794 12.1133 99.1794 13.0599V18.9999H95.2794V13.7599C95.2794 13.1733 95.2128 12.6733 95.0794 12.2599C94.9594 11.8333 94.7394 11.5066 94.4194 11.2799C94.1128 11.0399 93.6794 10.9199 93.1194 10.9199C92.5861 10.9199 92.1261 11.0399 91.7394 11.2799C91.3528 11.5066 91.0528 11.8266 90.8394 12.2399C90.6261 12.6399 90.5194 13.0999 90.5194 13.6199V18.9999H86.6194Z" fill="white"/>
<path d="M104.987 18.9999C104.36 18.9999 103.813 18.8999 103.347 18.6999C102.88 18.4866 102.52 18.1733 102.267 17.7599C102.013 17.3466 101.887 16.8199 101.887 16.1799V11.1199H99.9466V8.19992H101.887V5.57992L105.707 4.85992V8.19992H108.327V11.1199H105.707V14.8999C105.707 15.2066 105.773 15.4199 105.907 15.5399C106.053 15.6466 106.287 15.6999 106.607 15.6999H108.327V18.9999H104.987Z" fill="white"/>
<mask id="mask0_104_4104" style="mask-type:alpha" maskUnits="userSpaceOnUse" x="0" y="0" width="24" height="24">
<circle cx="12" cy="12" r="12" fill="white"/>
</mask>
<g mask="url(#mask0_104_4104)">
<path d="M17.2122 7.19486C18.5752 7.19486 19.6802 6.06955 19.6802 4.68141C19.6802 3.29328 18.5752 2.16797 17.2122 2.16797C15.8491 2.16797 14.7441 3.29328 14.7441 4.68141C14.7441 6.06955 15.8491 7.19486 17.2122 7.19486Z" fill="white"/>
<path d="M19.129 19.2539L14.5238 14.313C14.5079 14.2956 14.4907 14.2817 14.4748 14.2654C13.7091 13.4694 13.0667 12.5747 11.9645 12.4852C10.5245 12.369 9.25 13.617 9.25 13.617L10.8189 16.9508L11.8458 16.1374L12.2053 16.5488L16.8105 21.4908C16.9549 21.6458 17.1279 21.7703 17.3196 21.8571C17.5113 21.944 17.7179 21.9916 17.9276 21.9971C18.1373 22.0027 18.3461 21.9661 18.542 21.8895C18.7378 21.8129 18.917 21.6978 19.0691 21.5507C19.2213 21.4036 19.3435 21.2274 19.4288 21.0322C19.5141 20.837 19.5608 20.6265 19.5663 20.4129C19.5717 20.1994 19.5358 19.9868 19.4606 19.7873C19.3854 19.5878 19.2723 19.4054 19.1279 19.2504L19.129 19.2539Z" fill="white"/>
<path d="M14.9493 7.25433C14.9493 7.25433 13.9429 5.77043 12.504 5.64029C11.4897 5.54849 10.7708 6.2213 9.96982 6.83949L9.76672 6.99404L5.60653 10.1512C5.26759 10.4103 5.04358 10.7958 4.98377 11.223C4.92397 11.6503 5.03326 12.0842 5.28761 12.4294C5.54196 12.7746 5.92054 13.0027 6.34005 13.0636C6.75957 13.1245 7.18566 13.0132 7.52459 12.7542L12.0545 9.29135L12.9068 10.2337L14.9493 7.25433Z" fill="white"/>
<path d="M12.6043 13.1451C12.2868 12.7771 11.8417 12.5486 11.3624 12.5076C10.883 12.4667 10.4067 12.6164 10.0335 12.9255L8.42582 14.2746V14.2665L6.3229 16.0269L3.59813 13.0521C3.30913 12.7366 2.90886 12.5508 2.48539 12.5358C2.06191 12.5207 1.64992 12.6776 1.34003 12.972C1.03015 13.2663 0.847767 13.6739 0.833003 14.1052C0.818238 14.5364 0.972301 14.956 1.2613 15.2716L4.30442 18.5926C4.38974 18.6863 4.48591 18.769 4.59082 18.839C5.03171 19.2302 5.57718 19.4787 6.15745 19.5525C6.95617 19.6361 7.77543 19.284 8.39615 18.9029L8.45776 18.8739L8.48629 18.8518C8.83752 18.6303 9.16792 18.3763 9.47328 18.093L12.4034 15.6946C12.585 15.5434 12.7348 15.3564 12.8437 15.1449C12.9526 14.9333 13.0184 14.7015 13.0371 14.4634C13.0559 14.2253 13.0272 13.9858 12.9528 13.7593C12.8784 13.5327 12.7599 13.3238 12.6043 13.1451V13.1451Z" fill="white"/>
<path d="M22.7845 7.37819C22.6483 7.21565 22.482 7.08202 22.2951 6.98494C22.1082 6.88786 21.9043 6.82923 21.6952 6.8124C21.486 6.79557 21.2756 6.82086 21.0761 6.88684C20.8765 6.95281 20.6917 7.05818 20.5321 7.19692L17.5437 9.79519L14.3135 6.49273C14.1425 6.30763 13.9351 6.16127 13.7049 6.06317C13.4747 5.96507 13.2268 5.91743 12.9773 5.92334C12.5176 5.9231 12.0743 6.09802 11.7348 6.41371C11.5605 6.57363 11.4198 6.76775 11.321 6.98442C11.2223 7.20109 11.1675 7.43585 11.1601 7.67461C11.1526 7.91336 11.1926 8.15119 11.2776 8.37382C11.3627 8.59645 11.491 8.79928 11.6549 8.97016L14.1378 11.5266C14.1378 11.5266 15.6211 13.3428 17.2653 13.3614C17.8505 13.3545 18.4203 13.1695 18.9016 12.8304C19.0132 12.7732 19.1178 12.7025 19.2131 12.6201L22.6076 9.67202C22.7671 9.53324 22.8983 9.36382 22.9935 9.17343C23.0887 8.98304 23.1462 8.77542 23.1626 8.56241C23.179 8.3494 23.1541 8.13519 23.0892 7.932C23.0243 7.72881 22.9208 7.54062 22.7845 7.37819Z" fill="white"/>
</g>
</svg>