<svg xmlns:xlink="http://www.w3.org/1999/xlink" width="80" height="80" viewBox="0 0 80 80" fill="none" xmlns="http://www.w3.org/2000/svg"><g clip-path="url(#clip0_231_2649)" fill="none"><path d="M73.3333 0H6.66667C2.98477 0 0 2.98477 0 6.66667V73.3333C0 77.0152 2.98477 80 6.66667 80H73.3333C77.0152 80 80 77.0152 80 73.3333V6.66667C80 2.98477 77.0152 0 73.3333 0Z" fill="#FFFFFF"></path><path d="M28.1484 3.11108C28.502 3.11108 28.8411 3.25156 29.0912 3.50161C29.3412 3.75166 29.4817 4.0908 29.4817 4.44442C29.4817 4.79804 29.3412 5.13718 29.0912 5.38723C28.8411 5.63727 28.502 5.77775 28.1484 5.77775C27.7947 5.77775 27.4556 5.63727 27.2056 5.38723C26.9555 5.13718 26.815 4.79804 26.815 4.44442C26.815 4.0908 26.9555 3.75166 27.2056 3.50161C27.4556 3.25156 27.7947 3.11108 28.1484 3.11108ZM37.0373 3.11108C37.3909 3.11108 37.73 3.25156 37.9801 3.50161C38.2301 3.75166 38.3706 4.0908 38.3706 4.44442C38.3706 4.79804 38.2301 5.13718 37.9801 5.38723C37.73 5.63727 37.3909 5.77775 37.0373 5.77775C36.6836 5.77775 36.3445 5.63727 36.0944 5.38723C35.8444 5.13718 35.7039 4.79804 35.7039 4.44442C35.7039 4.0908 35.8444 3.75166 36.0944 3.50161C36.3445 3.25156 36.6836 3.11108 37.0373 3.11108ZM42.9632 3.11108C43.3168 3.11108 43.6559 3.25156 43.906 3.50161C44.156 3.75166 44.2965 4.0908 44.2965 4.44442C44.2965 4.79804 44.156 5.13718 43.906 5.38723C43.6559 5.63727 43.3168 5.77775 42.9632 5.77775C42.6096 5.77775 42.2704 5.63727 42.0204 5.38723C41.7703 5.13718 41.6298 4.79804 41.6298 4.44442C41.6298 4.0908 41.7703 3.75166 42.0204 3.50161C42.2704 3.25156 42.6096 3.11108 42.9632 3.11108ZM45.9261 3.11108C46.2798 3.11108 46.6189 3.25156 46.869 3.50161C47.119 3.75166 47.2595 4.0908 47.2595 4.44442C47.2595 4.79804 47.119 5.13718 46.869 5.38723C46.6189 5.63727 46.2798 5.77775 45.9261 5.77775C45.5725 5.77775 45.2334 5.63727 44.9833 5.38723C44.7333 5.13718 44.5928 4.79804 44.5928 4.44442C44.5928 4.0908 44.7333 3.75166 44.9833 3.50161C45.2334 3.25156 45.5725 3.11108 45.9261 3.11108ZM48.8891 3.11108C49.2427 3.11108 49.5819 3.25156 49.8319 3.50161C50.082 3.75166 50.2224 4.0908 50.2224 4.44442C50.2224 4.79804 50.082 5.13718 49.8319 5.38723C49.5819 5.63727 49.2427 5.77775 48.8891 5.77775C48.5355 5.77775 48.1963 5.63727 47.9463 5.38723C47.6962 5.13718 47.5558 4.79804 47.5558 4.44442C47.5558 4.0908 47.6962 3.75166 47.9463 3.50161C48.1963 3.25156 48.5355 3.11108 48.8891 3.11108ZM51.8521 3.11108C52.2057 3.11108 52.5448 3.25156 52.7949 3.50161C53.0449 3.75166 53.1854 4.0908 53.1854 4.44442C53.1854 4.79804 53.0449 5.13718 52.7949 5.38723C52.5448 5.63727 52.2057 5.77775 51.8521 5.77775C51.4984 5.77775 51.1593 5.63727 50.9093 5.38723C50.6592 5.13718 50.5187 4.79804 50.5187 4.44442C50.5187 4.0908 50.6592 3.75166 50.9093 3.50161C51.1593 3.25156 51.4984 3.11108 51.8521 3.11108ZM28.1484 6.07405C28.502 6.07405 28.8411 6.21452 29.0912 6.46457C29.3412 6.71462 29.4817 7.05376 29.4817 7.40738C29.4817 7.761 29.3412 8.10014 29.0912 8.35019C28.8411 8.60024 28.502 8.74071 28.1484 8.74071C27.7947 8.74071 27.4556 8.60024 27.2056 8.35019C26.9555 8.10014 26.815 7.761 26.815 7.40738C26.815 7.05376 26.9555 6.71462 27.2056 6.46457C27.4556 6.21452 27.7947 6.07405 28.1484 6.07405ZM34.0743 6.07405C34.4279 6.07405 34.7671 6.21452 35.0171 6.46457C35.2671 6.71462 35.4076 7.05376 35.4076 7.40738C35.4076 7.761 35.2671 8.10014 35.0171 8.35019C34.7671 8.60024 34.4279 8.74071 34.0743 8.74071C33.7207 8.74071 33.3815 8.60024 33.1315 8.35019C32.8814 8.10014 32.741 7.761 32.741 7.40738C32.741 7.05376 32.8814 6.71462 33.1315 6.46457C33.3815 6.21452 33.7207 6.07405 34.0743 6.07405ZM42.9632 6.07405C43.3168 6.07405 43.6559 6.21452 43.906 6.46457C44.156 6.71462 44.2965 7.05376 44.2965 7.40738C44.2965 7.761 44.156 8.10014 43.906 8.35019C43.6559 8.60024 43.3168 8.74071 42.9632 8.74071C42.6096 8.74071 42.2704 8.60024 42.0204 8.35019C41.7703 8.10014 41.6298 7.761 41.6298 7.40738C41.6298 7.05376 41.7703 6.71462 42.0204 6.46457C42.2704 6.21452 42.6096 6.07405 42.9632 6.07405ZM45.9261 6.07405C46.2798 6.07405 46.6189 6.21452 46.869 6.46457C47.119 6.71462 47.2595 7.05376 47.2595 7.40738C47.2595 7.761 47.119 8.10014 46.869 8.35019C46.6189 8.60024 46.2798 8.74071 45.9261 8.74071C45.5725 8.74071 45.2334 8.60024 44.9833 8.35019C44.7333 8.10014 44.5928 7.761 44.5928 7.40738C44.5928 7.05376 44.7333 6.71462 44.9833 6.46457C45.2334 6.21452 45.5725 6.07405 45.9261 6.07405ZM28.1484 9.03701C28.502 9.03701 28.8411 9.17749 29.0912 9.42753C29.3412 9.67758 29.4817 10.0167 29.4817 10.3703C29.4817 10.724 29.3412 11.0631 29.0912 11.3132C28.8411 11.5632 28.502 11.7037 28.1484 11.7037C27.7947 11.7037 27.4556 11.5632 27.2056 11.3132C26.9555 11.0631 26.815 10.724 26.815 10.3703C26.815 10.0167 26.9555 9.67758 27.2056 9.42753C27.4556 9.17749 27.7947 9.03701 28.1484 9.03701ZM31.1113 9.03701C31.4649 9.03701 31.8041 9.17749 32.0541 9.42753C32.3042 9.67758 32.4447 10.0167 32.4447 10.3703C32.4447 10.724 32.3042 11.0631 32.0541 11.3132C31.8041 11.5632 31.4649 11.7037 31.1113 11.7037C30.7577 11.7037 30.4186 11.5632 30.1685 11.3132C29.9185 11.0631 29.778 10.724 29.778 10.3703C29.778 10.0167 29.9185 9.67758 30.1685 9.42753C30.4186 9.17749 30.7577 9.03701 31.1113 9.03701ZM37.0373 9.03701C37.3909 9.03701 37.73 9.17749 37.9801 9.42753C38.2301 9.67758 38.3706 10.0167 38.3706 10.3703C38.3706 10.724 38.2301 11.0631 37.9801 11.3132C37.73 11.5632 37.3909 11.7037 37.0373 11.7037C36.6836 11.7037 36.3445 11.5632 36.0944 11.3132C35.8444 11.0631 35.7039 10.724 35.7039 10.3703C35.7039 10.0167 35.8444 9.67758 36.0944 9.42753C36.3445 9.17749 36.6836 9.03701 37.0373 9.03701ZM40.0002 9.03701C40.3538 9.03701 40.693 9.17749 40.943 9.42753C41.1931 9.67758 41.3335 10.0167 41.3335 10.3703C41.3335 10.724 41.1931 11.0631 40.943 11.3132C40.693 11.5632 40.3538 11.7037 40.0002 11.7037C39.6466 11.7037 39.3075 11.5632 39.0574 11.3132C38.8074 11.0631 38.6669 10.724 38.6669 10.3703C38.6669 10.0167 38.8074 9.67758 39.0574 9.42753C39.3075 9.17749 39.6466 9.03701 40.0002 9.03701ZM45.9261 9.03701C46.2798 9.03701 46.6189 9.17749 46.869 9.42753C47.119 9.67758 47.2595 10.0167 47.2595 10.3703C47.2595 10.724 47.119 11.0631 46.869 11.3132C46.6189 11.5632 46.2798 11.7037 45.9261 11.7037C45.5725 11.7037 45.2334 11.5632 44.9833 11.3132C44.7333 11.0631 44.5928 10.724 44.5928 10.3703C44.5928 10.0167 44.7333 9.67758 44.9833 9.42753C45.2334 9.17749 45.5725 9.03701 45.9261 9.03701ZM48.8891 9.03701C49.2427 9.03701 49.5819 9.17749 49.8319 9.42753C50.082 9.67758 50.2224 10.0167 50.2224 10.3703C50.2224 10.724 50.082 11.0631 49.8319 11.3132C49.5819 11.5632 49.2427 11.7037 48.8891 11.7037C48.5355 11.7037 48.1963 11.5632 47.9463 11.3132C47.6962 11.0631 47.5558 10.724 47.5558 10.3703C47.5558 10.0167 47.6962 9.67758 47.9463 9.42753C48.1963 9.17749 48.5355 9.03701 48.8891 9.03701ZM51.8521 9.03701C52.2057 9.03701 52.5448 9.17749 52.7949 9.42753C53.0449 9.67758 53.1854 10.0167 53.1854 10.3703C53.1854 10.724 53.0449 11.0631 52.7949 11.3132C52.5448 11.5632 52.2057 11.7037 51.8521 11.7037C51.4984 11.7037 51.1593 11.5632 50.9093 11.3132C50.6592 11.0631 50.5187 10.724 50.5187 10.3703C50.5187 10.0167 50.6592 9.67758 50.9093 9.42753C51.1593 9.17749 51.4984 9.03701 51.8521 9.03701ZM28.1484 12C28.502 12 28.8411 12.1404 29.0912 12.3905C29.3412 12.6405 29.4817 12.9797 29.4817 13.3333C29.4817 13.6869 29.3412 14.0261 29.0912 14.2761C28.8411 14.5262 28.502 14.6666 28.1484 14.6666C27.7947 14.6666 27.4556 14.5262 27.2056 14.2761C26.9555 14.0261 26.815 13.6869 26.815 13.3333C26.815 12.9797 26.9555 12.6405 27.2056 12.3905C27.4556 12.1404 27.7947 12 28.1484 12ZM31.1113 12C31.4649 12 31.8041 12.1404 32.0541 12.3905C32.3042 12.6405 32.4447 12.9797 32.4447 13.3333C32.4447 13.6869 32.3042 14.0261 32.0541 14.2761C31.8041 14.5262 31.4649 14.6666 31.1113 14.6666C30.7577 14.6666 30.4186 14.5262 30.1685 14.2761C29.9185 14.0261 29.778 13.6869 29.778 13.3333C29.778 12.9797 29.9185 12.6405 30.1685 12.3905C30.4186 12.1404 30.7577 12 31.1113 12ZM34.0743 12C34.4279 12 34.7671 12.1404 35.0171 12.3905C35.2671 12.6405 35.4076 12.9797 35.4076 13.3333C35.4076 13.6869 35.2671 14.0261 35.0171 14.2761C34.7671 14.5262 34.4279 14.6666 34.0743 14.6666C33.7207 14.6666 33.3815 14.5262 33.1315 14.2761C32.8814 14.0261 32.741 13.6869 32.741 13.3333C32.741 12.9797 32.8814 12.6405 33.1315 12.3905C33.3815 12.1404 33.7207 12 34.0743 12ZM42.9632 12C43.3168 12 43.6559 12.1404 43.906 12.3905C44.156 12.6405 44.2965 12.9797 44.2965 13.3333C44.2965 13.6869 44.156 14.0261 43.906 14.2761C43.6559 14.5262 43.3168 14.6666 42.9632 14.6666C42.6096 14.6666 42.2704 14.5262 42.0204 14.2761C41.7703 14.0261 41.6298 13.6869 41.6298 13.3333C41.6298 12.9797 41.7703 12.6405 42.0204 12.3905C42.2704 12.1404 42.6096 12 42.9632 12ZM45.9261 12C46.2798 12 46.6189 12.1404 46.869 12.3905C47.119 12.6405 47.2595 12.9797 47.2595 13.3333C47.2595 13.6869 47.119 14.0261 46.869 14.2761C46.6189 14.5262 46.2798 14.6666 45.9261 14.6666C45.5725 14.6666 45.2334 14.5262 44.9833 14.2761C44.7333 14.0261 44.5928 13.6869 44.5928 13.3333C44.5928 12.9797 44.7333 12.6405 44.9833 12.3905C45.2334 12.1404 45.5725 12 45.9261 12ZM48.8891 12C49.2427 12 49.5819 12.1404 49.8319 12.3905C50.082 12.6405 50.2224 12.9797 50.2224 13.3333C50.2224 13.6869 50.082 14.0261 49.8319 14.2761C49.5819 14.5262 49.2427 14.6666 48.8891 14.6666C48.5355 14.6666 48.1963 14.5262 47.9463 14.2761C47.6962 14.0261 47.5558 13.6869 47.5558 13.3333C47.5558 12.9797 47.6962 12.6405 47.9463 12.3905C48.1963 12.1404 48.5355 12 48.8891 12ZM31.1113 14.9629C31.4649 14.9629 31.8041 15.1034 32.0541 15.3535C32.3042 15.6035 32.4447 15.9426 32.4447 16.2963C32.4447 16.6499 32.3042 16.989 32.0541 17.2391C31.8041 17.4891 31.4649 17.6296 31.1113 17.6296C30.7577 17.6296 30.4186 17.4891 30.1685 17.2391C29.9185 16.989 29.778 16.6499 29.778 16.2963C29.778 15.9426 29.9185 15.6035 30.1685 15.3535C30.4186 15.1034 30.7577 14.9629 31.1113 14.9629ZM37.0373 14.9629C37.3909 14.9629 37.73 15.1034 37.9801 15.3535C38.2301 15.6035 38.3706 15.9426 38.3706 16.2963C38.3706 16.6499 38.2301 16.989 37.9801 17.2391C37.73 17.4891 37.3909 17.6296 37.0373 17.6296C36.6836 17.6296 36.3445 17.4891 36.0944 17.2391C35.8444 16.989 35.7039 16.6499 35.7039 16.2963C35.7039 15.9426 35.8444 15.6035 36.0944 15.3535C36.3445 15.1034 36.6836 14.9629 37.0373 14.9629ZM42.9632 14.9629C43.3168 14.9629 43.6559 15.1034 43.906 15.3535C44.156 15.6035 44.2965 15.9426 44.2965 16.2963C44.2965 16.6499 44.156 16.989 43.906 17.2391C43.6559 17.4891 43.3168 17.6296 42.9632 17.6296C42.6096 17.6296 42.2704 17.4891 42.0204 17.2391C41.7703 16.989 41.6298 16.6499 41.6298 16.2963C41.6298 15.9426 41.7703 15.6035 42.0204 15.3535C42.2704 15.1034 42.6096 14.9629 42.9632 14.9629ZM45.9261 14.9629C46.2798 14.9629 46.6189 15.1034 46.869 15.3535C47.119 15.6035 47.2595 15.9426 47.2595 16.2963C47.2595 16.6499 47.119 16.989 46.869 17.2391C46.6189 17.4891 46.2798 17.6296 45.9261 17.6296C45.5725 17.6296 45.2334 17.4891 44.9833 17.2391C44.7333 16.989 44.5928 16.6499 44.5928 16.2963C44.5928 15.9426 44.7333 15.6035 44.9833 15.3535C45.2334 15.1034 45.5725 14.9629 45.9261 14.9629ZM48.8891 14.9629C49.2427 14.9629 49.5819 15.1034 49.8319 15.3535C50.082 15.6035 50.2224 15.9426 50.2224 16.2963C50.2224 16.6499 50.082 16.989 49.8319 17.2391C49.5819 17.4891 49.2427 17.6296 48.8891 17.6296C48.5355 17.6296 48.1963 17.4891 47.9463 17.2391C47.6962 16.989 47.5558 16.6499 47.5558 16.2963C47.5558 15.9426 47.6962 15.6035 47.9463 15.3535C48.1963 15.1034 48.5355 14.9629 48.8891 14.9629ZM51.8521 14.9629C52.2057 14.9629 52.5448 15.1034 52.7949 15.3535C53.0449 15.6035 53.1854 15.9426 53.1854 16.2963C53.1854 16.6499 53.0449 16.989 52.7949 17.2391C52.5448 17.4891 52.2057 17.6296 51.8521 17.6296C51.4984 17.6296 51.1593 17.4891 50.9093 17.2391C50.6592 16.989 50.5187 16.6499 50.5187 16.2963C50.5187 15.9426 50.6592 15.6035 50.9093 15.3535C51.1593 15.1034 51.4984 14.9629 51.8521 14.9629ZM28.1484 17.9259C28.502 17.9259 28.8411 18.0664 29.0912 18.3164C29.3412 18.5665 29.4817 18.9056 29.4817 19.2592C29.4817 19.6129 29.3412 19.952 29.0912 20.202C28.8411 20.4521 28.502 20.5926 28.1484 20.5926C27.7947 20.5926 27.4556 20.4521 27.2056 20.202C26.9555 19.952 26.815 19.6129 26.815 19.2592C26.815 18.9056 26.9555 18.5665 27.2056 18.3164C27.4556 18.0664 27.7947 17.9259 28.1484 17.9259ZM31.1113 17.9259C31.4649 17.9259 31.8041 18.0664 32.0541 18.3164C32.3042 18.5665 32.4447 18.9056 32.4447 19.2592C32.4447 19.6129 32.3042 19.952 32.0541 20.202C31.8041 20.4521 31.4649 20.5926 31.1113 20.5926C30.7577 20.5926 30.4186 20.4521 30.1685 20.202C29.9185 19.952 29.778 19.6129 29.778 19.2592C29.778 18.9056 29.9185 18.5665 30.1685 18.3164C30.4186 18.0664 30.7577 17.9259 31.1113 17.9259ZM34.0743 17.9259C34.4279 17.9259 34.7671 18.0664 35.0171 18.3164C35.2671 18.5665 35.4076 18.9056 35.4076 19.2592C35.4076 19.6129 35.2671 19.952 35.0171 20.202C34.7671 20.4521 34.4279 20.5926 34.0743 20.5926C33.7207 20.5926 33.3815 20.4521 33.1315 20.202C32.8814 19.952 32.741 19.6129 32.741 19.2592C32.741 18.9056 32.8814 18.5665 33.1315 18.3164C33.3815 18.0664 33.7207 17.9259 34.0743 17.9259ZM28.1484 20.8889C28.502 20.8889 28.8411 21.0293 29.0912 21.2794C29.3412 21.5294 29.4817 21.8686 29.4817 22.2222C29.4817 22.5758 29.3412 22.915 29.0912 23.165C28.8411 23.4151 28.502 23.5555 28.1484 23.5555C27.7947 23.5555 27.4556 23.4151 27.2056 23.165C26.9555 22.915 26.815 22.5758 26.815 22.2222C26.815 21.8686 26.9555 21.5294 27.2056 21.2794C27.4556 21.0293 27.7947 20.8889 28.1484 20.8889ZM34.0743 20.8889C34.4279 20.8889 34.7671 21.0293 35.0171 21.2794C35.2671 21.5294 35.4076 21.8686 35.4076 22.2222C35.4076 22.5758 35.2671 22.915 35.0171 23.165C34.7671 23.4151 34.4279 23.5555 34.0743 23.5555C33.7207 23.5555 33.3815 23.4151 33.1315 23.165C32.8814 22.915 32.741 22.5758 32.741 22.2222C32.741 21.8686 32.8814 21.5294 33.1315 21.2794C33.3815 21.0293 33.7207 20.8889 34.0743 20.8889ZM40.0002 20.8889C40.3538 20.8889 40.693 21.0293 40.943 21.2794C41.1931 21.5294 41.3335 21.8686 41.3335 22.2222C41.3335 22.5758 41.1931 22.915 40.943 23.165C40.693 23.4151 40.3538 23.5555 40.0002 23.5555C39.6466 23.5555 39.3075 23.4151 39.0574 23.165C38.8074 22.915 38.6669 22.5758 38.6669 22.2222C38.6669 21.8686 38.8074 21.5294 39.0574 21.2794C39.3075 21.0293 39.6466 20.8889 40.0002 20.8889ZM45.9261 20.8889C46.2798 20.8889 46.6189 21.0293 46.869 21.2794C47.119 21.5294 47.2595 21.8686 47.2595 22.2222C47.2595 22.5758 47.119 22.915 46.869 23.165C46.6189 23.4151 46.2798 23.5555 45.9261 23.5555C45.5725 23.5555 45.2334 23.4151 44.9833 23.165C44.7333 22.915 44.5928 22.5758 44.5928 22.2222C44.5928 21.8686 44.7333 21.5294 44.9833 21.2794C45.2334 21.0293 45.5725 20.8889 45.9261 20.8889ZM51.8521 20.8889C52.2057 20.8889 52.5448 21.0293 52.7949 21.2794C53.0449 21.5294 53.1854 21.8686 53.1854 22.2222C53.1854 22.5758 53.0449 22.915 52.7949 23.165C52.5448 23.4151 52.2057 23.5555 51.8521 23.5555C51.4984 23.5555 51.1593 23.4151 50.9093 23.165C50.6592 22.915 50.5187 22.5758 50.5187 22.2222C50.5187 21.8686 50.6592 21.5294 50.9093 21.2794C51.1593 21.0293 51.4984 20.8889 51.8521 20.8889ZM34.0743 23.8518C34.4279 23.8518 34.7671 23.9923 35.0171 24.2423C35.2671 24.4924 35.4076 24.8315 35.4076 25.1852C35.4076 25.5388 35.2671 25.8779 35.0171 26.128C34.7671 26.378 34.4279 26.5185 34.0743 26.5185C33.7207 26.5185 33.3815 26.378 33.1315 26.128C32.8814 25.8779 32.741 25.5388 32.741 25.1852C32.741 24.8315 32.8814 24.4924 33.1315 24.2423C33.3815 23.9923 33.7207 23.8518 34.0743 23.8518ZM40.0002 23.8518C40.3538 23.8518 40.693 23.9923 40.943 24.2423C41.1931 24.4924 41.3335 24.8315 41.3335 25.1852C41.3335 25.5388 41.1931 25.8779 40.943 26.128C40.693 26.378 40.3538 26.5185 40.0002 26.5185C39.6466 26.5185 39.3075 26.378 39.0574 26.128C38.8074 25.8779 38.6669 25.5388 38.6669 25.1852C38.6669 24.8315 38.8074 24.4924 39.0574 24.2423C39.3075 23.9923 39.6466 23.8518 40.0002 23.8518ZM45.9261 23.8518C46.2798 23.8518 46.6189 23.9923 46.869 24.2423C47.119 24.4924 47.2595 24.8315 47.2595 25.1852C47.2595 25.5388 47.119 25.8779 46.869 26.128C46.6189 26.378 46.2798 26.5185 45.9261 26.5185C45.5725 26.5185 45.2334 26.378 44.9833 26.128C44.7333 25.8779 44.5928 25.5388 44.5928 25.1852C44.5928 24.8315 44.7333 24.4924 44.9833 24.2423C45.2334 23.9923 45.5725 23.8518 45.9261 23.8518ZM4.44466 26.8148C4.79828 26.8148 5.13742 26.9553 5.38747 27.2053C5.63752 27.4554 5.77799 27.7945 5.77799 28.1481C5.77799 28.3232 5.74351 28.4966 5.6765 28.6584C5.60949 28.8201 5.51128 28.9671 5.38747 29.0909C5.26366 29.2147 5.11667 29.313 4.95491 29.38C4.79314 29.447 4.61976 29.4815 4.44466 29.4815C4.09104 29.4815 3.7519 29.341 3.50185 29.0909C3.2518 28.8409 3.11133 28.5017 3.11133 28.1481C3.11133 27.7945 3.2518 27.4554 3.50185 27.2053C3.7519 26.9553 4.09104 26.8148 4.44466 26.8148ZM7.40762 26.8148C7.76125 26.8148 8.10039 26.9553 8.35043 27.2053C8.60048 27.4554 8.74096 27.7945 8.74096 28.1481C8.74096 28.5017 8.60048 28.8409 8.35043 29.0909C8.10039 29.341 7.76125 29.4815 7.40762 29.4815C7.054 29.4815 6.71486 29.341 6.46482 29.0909C6.21477 28.8409 6.07429 28.5017 6.07429 28.1481C6.07429 27.7945 6.21477 27.4554 6.46482 27.2053C6.71486 26.9553 7.054 26.8148 7.40762 26.8148ZM16.2965 26.8148C16.6501 26.8148 16.9893 26.9553 17.2393 27.2053C17.4894 27.4554 17.6298 27.7945 17.6298 28.1481C17.6298 28.5017 17.4894 28.8409 17.2393 29.0909C16.9893 29.341 16.6501 29.4815 16.2965 29.4815C15.9429 29.4815 15.6038 29.341 15.3537 29.0909C15.1037 28.8409 14.9632 28.5017 14.9632 28.1481C14.9632 27.7945 15.1037 27.4554 15.3537 27.2053C15.6038 26.9553 15.9429 26.8148 16.2965 26.8148ZM19.2595 26.8148C19.6131 26.8148 19.9522 26.9553 20.2023 27.2053C20.4523 27.4554 20.5928 27.7945 20.5928 28.1481C20.5928 28.5017 20.4523 28.8409 20.2023 29.0909C19.9522 29.341 19.6131 29.4815 19.2595 29.4815C18.9059 29.4815 18.5667 29.341 18.3167 29.0909C18.0666 28.8409 17.9261 28.5017 17.9261 28.1481C17.9261 27.7945 18.0666 27.4554 18.3167 27.2053C18.5667 26.9553 18.9059 26.8148 19.2595 26.8148ZM22.2224 26.8148C22.5761 26.8148 22.9152 26.9553 23.1652 27.2053C23.4153 27.4554 23.5558 27.7945 23.5558 28.1481C23.5558 28.5017 23.4153 28.8409 23.1652 29.0909C22.9152 29.341 22.5761 29.4815 22.2224 29.4815C21.8688 29.4815 21.5297 29.341 21.2796 29.0909C21.0296 28.8409 20.8891 28.5017 20.8891 28.1481C20.8891 27.7945 21.0296 27.4554 21.2796 27.2053C21.5297 26.9553 21.8688 26.8148 22.2224 26.8148ZM34.0743 26.8148C34.4279 26.8148 34.7671 26.9553 35.0171 27.2053C35.2671 27.4554 35.4076 27.7945 35.4076 28.1481C35.4076 28.5017 35.2671 28.8409 35.0171 29.0909C34.7671 29.341 34.4279 29.4815 34.0743 29.4815C33.7207 29.4815 33.3815 29.341 33.1315 29.0909C32.8814 28.8409 32.741 28.5017 32.741 28.1481C32.741 27.7945 32.8814 27.4554 33.1315 27.2053C33.3815 26.9553 33.7207 26.8148 34.0743 26.8148ZM37.0373 26.8148C37.3909 26.8148 37.73 26.9553 37.9801 27.2053C38.2301 27.4554 38.3706 27.7945 38.3706 28.1481C38.3706 28.5017 38.2301 28.8409 37.9801 29.0909C37.73 29.341 37.3909 29.4815 37.0373 29.4815C36.6836 29.4815 36.3445 29.341 36.0944 29.0909C35.8444 28.8409 35.7039 28.5017 35.7039 28.1481C35.7039 27.7945 35.8444 27.4554 36.0944 27.2053C36.3445 26.9553 36.6836 26.8148 37.0373 26.8148ZM40.0002 26.8148C40.3538 26.8148 40.693 26.9553 40.943 27.2053C41.1931 27.4554 41.3335 27.7945 41.3335 28.1481C41.3335 28.5017 41.1931 28.8409 40.943 29.0909C40.693 29.341 40.3538 29.4815 40.0002 29.4815C39.6466 29.4815 39.3075 29.341 39.0574 29.0909C38.8074 28.8409 38.6669 28.5017 38.6669 28.1481C38.6669 27.7945 38.8074 27.4554 39.0574 27.2053C39.3075 26.9553 39.6466 26.8148 40.0002 26.8148ZM48.8891 26.8148C49.2427 26.8148 49.5819 26.9553 49.8319 27.2053C50.082 27.4554 50.2224 27.7945 50.2224 28.1481C50.2224 28.5017 50.082 28.8409 49.8319 29.0909C49.5819 29.341 49.2427 29.4815 48.8891 29.4815C48.5355 29.4815 48.1963 29.341 47.9463 29.0909C47.6962 28.8409 47.5558 28.5017 47.5558 28.1481C47.5558 27.7945 47.6962 27.4554 47.9463 27.2053C48.1963 26.9553 48.5355 26.8148 48.8891 26.8148ZM60.741 26.8148C61.0946 26.8148 61.4337 26.9553 61.6838 27.2053C61.9338 27.4554 62.0743 27.7945 62.0743 28.1481C62.0743 28.5017 61.9338 28.8409 61.6838 29.0909C61.4337 29.341 61.0946 29.4815 60.741 29.4815C60.3873 29.4815 60.0482 29.341 59.7982 29.0909C59.5481 28.8409 59.4076 28.5017 59.4076 28.1481C59.4076 27.7945 59.5481 27.4554 59.7982 27.2053C60.0482 26.9553 60.3873 26.8148 60.741 26.8148ZM66.6669 26.8148C67.0205 26.8148 67.3596 26.9553 67.6097 27.2053C67.8597 27.4554 68.0002 27.7945 68.0002 28.1481C68.0002 28.5017 67.8597 28.8409 67.6097 29.0909C67.3596 29.341 67.0205 29.4815 66.6669 29.4815C66.3133 29.4815 65.9741 29.341 65.7241 29.0909C65.474 28.8409 65.3335 28.5017 65.3335 28.1481C65.3335 27.7945 65.474 27.4554 65.7241 27.2053C65.9741 26.9553 66.3133 26.8148 66.6669 26.8148ZM69.6298 26.8148C69.9835 26.8148 70.3226 26.9553 70.5727 27.2053C70.8227 27.4554 70.9632 27.7945 70.9632 28.1481C70.9632 28.5017 70.8227 28.8409 70.5727 29.0909C70.3226 29.341 69.9835 29.4815 69.6298 29.4815C69.2762 29.4815 68.9371 29.341 68.687 29.0909C68.437 28.8409 68.2965 28.5017 68.2965 28.1481C68.2965 27.7945 68.437 27.4554 68.687 27.2053C68.9371 26.9553 69.2762 26.8148 69.6298 26.8148ZM72.5928 26.8148C72.9464 26.8148 73.2856 26.9553 73.5356 27.2053C73.7857 27.4554 73.9261 27.7945 73.9261 28.1481C73.9261 28.5017 73.7857 28.8409 73.5356 29.0909C73.2856 29.341 72.9464 29.4815 72.5928 29.4815C72.2392 29.4815 71.9001 29.341 71.65 29.0909C71.4 28.8409 71.2595 28.5017 71.2595 28.1481C71.2595 27.7945 71.4 27.4554 71.65 27.2053C71.9001 26.9553 72.2392 26.8148 72.5928 26.8148ZM75.5558 26.8148C75.9094 26.8148 76.2485 26.9553 76.4986 27.2053C76.7486 27.4554 76.8891 27.7945 76.8891 28.1481C76.8891 28.5017 76.7486 28.8409 76.4986 29.0909C76.2485 29.341 75.9094 29.4815 75.5558 29.4815C75.2022 29.4815 74.863 29.341 74.613 29.0909C74.3629 28.8409 74.2224 28.5017 74.2224 28.1481C74.2224 27.7945 74.3629 27.4554 74.613 27.2053C74.863 26.9553 75.2022 26.8148 75.5558 26.8148ZM4.44466 29.7777C4.79828 29.7777 5.13742 29.9182 5.38747 30.1683C5.63752 30.4183 5.77799 30.7575 5.77799 31.1111C5.77799 31.2862 5.74351 31.4596 5.6765 31.6213C5.60949 31.7831 5.51128 31.9301 5.38747 32.0539C5.26366 32.1777 5.11667 32.2759 4.95491 32.3429C4.79314 32.4099 4.61976 32.4444 4.44466 32.4444C4.09104 32.4444 3.7519 32.3039 3.50185 32.0539C3.2518 31.8038 3.11133 31.4647 3.11133 31.1111C3.11133 30.7575 3.2518 30.4183 3.50185 30.1683C3.7519 29.9182 4.09104 29.7777 4.44466 29.7777ZM10.3706 29.7777C10.7242 29.7777 11.0633 29.9182 11.3134 30.1683C11.5634 30.4183 11.7039 30.7575 11.7039 31.1111C11.7039 31.4647 11.5634 31.8038 11.3134 32.0539C11.0633 32.3039 10.7242 32.4444 10.3706 32.4444C10.017 32.4444 9.67783 32.3039 9.42778 32.0539C9.17773 31.8038 9.03725 31.4647 9.03725 31.1111C9.03725 30.7575 9.17773 30.4183 9.42778 30.1683C9.67783 29.9182 10.017 29.7777 10.3706 29.7777ZM19.2595 29.7777C19.6131 29.7777 19.9522 29.9182 20.2023 30.1683C20.4523 30.4183 20.5928 30.7575 20.5928 31.1111C20.5928 31.4647 20.4523 31.8038 20.2023 32.0539C19.9522 32.3039 19.6131 32.4444 19.2595 32.4444C18.9059 32.4444 18.5667 32.3039 18.3167 32.0539C18.0666 31.8038 17.9261 31.4647 17.9261 31.1111C17.9261 30.7575 18.0666 30.4183 18.3167 30.1683C18.5667 29.9182 18.9059 29.7777 19.2595 29.7777ZM28.1484 29.7777C28.502 29.7777 28.8411 29.9182 29.0912 30.1683C29.3412 30.4183 29.4817 30.7575 29.4817 31.1111C29.4817 31.4647 29.3412 31.8038 29.0912 32.0539C28.8411 32.3039 28.502 32.4444 28.1484 32.4444C27.7947 32.4444 27.4556 32.3039 27.2056 32.0539C26.9555 31.8038 26.815 31.4647 26.815 31.1111C26.815 30.7575 26.9555 30.4183 27.2056 30.1683C27.4556 29.9182 27.7947 29.7777 28.1484 29.7777ZM37.0373 29.7777C37.3909 29.7777 37.73 29.9182 37.9801 30.1683C38.2301 30.4183 38.3706 30.7575 38.3706 31.1111C38.3706 31.4647 38.2301 31.8038 37.9801 32.0539C37.73 32.3039 37.3909 32.4444 37.0373 32.4444C36.6836 32.4444 36.3445 32.3039 36.0944 32.0539C35.8444 31.8038 35.7039 31.4647 35.7039 31.1111C35.7039 30.7575 35.8444 30.4183 36.0944 30.1683C36.3445 29.9182 36.6836 29.7777 37.0373 29.7777ZM42.9632 29.7777C43.3168 29.7777 43.6559 29.9182 43.906 30.1683C44.156 30.4183 44.2965 30.7575 44.2965 31.1111C44.2965 31.4647 44.156 31.8038 43.906 32.0539C43.6559 32.3039 43.3168 32.4444 42.9632 32.4444C42.6096 32.4444 42.2704 32.3039 42.0204 32.0539C41.7703 31.8038 41.6298 31.4647 41.6298 31.1111C41.6298 30.7575 41.7703 30.4183 42.0204 30.1683C42.2704 29.9182 42.6096 29.7777 42.9632 29.7777ZM45.9261 29.7777C46.2798 29.7777 46.6189 29.9182 46.869 30.1683C47.119 30.4183 47.2595 30.7575 47.2595 31.1111C47.2595 31.4647 47.119 31.8038 46.869 32.0539C46.6189 32.3039 46.2798 32.4444 45.9261 32.4444C45.5725 32.4444 45.2334 32.3039 44.9833 32.0539C44.7333 31.8038 44.5928 31.4647 44.5928 31.1111C44.5928 30.7575 44.7333 30.4183 44.9833 30.1683C45.2334 29.9182 45.5725 29.7777 45.9261 29.7777ZM48.8891 29.7777C49.2427 29.7777 49.5819 29.9182 49.8319 30.1683C50.082 30.4183 50.2224 30.7575 50.2224 31.1111C50.2224 31.4647 50.082 31.8038 49.8319 32.0539C49.5819 32.3039 49.2427 32.4444 48.8891 32.4444C48.5355 32.4444 48.1963 32.3039 47.9463 32.0539C47.6962 31.8038 47.5558 31.4647 47.5558 31.1111C47.5558 30.7575 47.6962 30.4183 47.9463 30.1683C48.1963 29.9182 48.5355 29.7777 48.8891 29.7777ZM63.7039 29.7777C64.0575 29.7777 64.3967 29.9182 64.6467 30.1683C64.8968 30.4183 65.0373 30.7575 65.0373 31.1111C65.0373 31.4647 64.8968 31.8038 64.6467 32.0539C64.3967 32.3039 64.0575 32.4444 63.7039 32.4444C63.3503 32.4444 63.0112 32.3039 62.7611 32.0539C62.5111 31.8038 62.3706 31.4647 62.3706 31.1111C62.3706 30.7575 62.5111 30.4183 62.7611 30.1683C63.0112 29.9182 63.3503 29.7777 63.7039 29.7777ZM66.6669 29.7777C67.0205 29.7777 67.3596 29.9182 67.6097 30.1683C67.8597 30.4183 68.0002 30.7575 68.0002 31.1111C68.0002 31.4647 67.8597 31.8038 67.6097 32.0539C67.3596 32.3039 67.0205 32.4444 66.6669 32.4444C66.3133 32.4444 65.9741 32.3039 65.7241 32.0539C65.474 31.8038 65.3335 31.4647 65.3335 31.1111C65.3335 30.7575 65.474 30.4183 65.7241 30.1683C65.9741 29.9182 66.3133 29.7777 66.6669 29.7777ZM72.5928 29.7777C72.9464 29.7777 73.2856 29.9182 73.5356 30.1683C73.7857 30.4183 73.9261 30.7575 73.9261 31.1111C73.9261 31.4647 73.7857 31.8038 73.5356 32.0539C73.2856 32.3039 72.9464 32.4444 72.5928 32.4444C72.2392 32.4444 71.9001 32.3039 71.65 32.0539C71.4 31.8038 71.2595 31.4647 71.2595 31.1111C71.2595 30.7575 71.4 30.4183 71.65 30.1683C71.9001 29.9182 72.2392 29.7777 72.5928 29.7777ZM4.44466 32.7407C4.79828 32.7407 5.13742 32.8812 5.38747 33.1312C5.63752 33.3813 5.77799 33.7204 5.77799 34.074C5.77799 34.2491 5.74351 34.4225 5.6765 34.5843C5.60949 34.7461 5.51128 34.893 5.38747 35.0169C5.26366 35.1407 5.11667 35.2389 4.95491 35.3059C4.79314 35.3729 4.61976 35.4074 4.44466 35.4074C4.09104 35.4074 3.7519 35.2669 3.50185 35.0169C3.2518 34.7668 3.11133 34.4277 3.11133 34.074C3.11133 33.7204 3.2518 33.3813 3.50185 33.1312C3.7519 32.8812 4.09104 32.7407 4.44466 32.7407ZM13.3336 32.7407C13.6872 32.7407 14.0263 32.8812 14.2764 33.1312C14.5264 33.3813 14.6669 33.7204 14.6669 34.074C14.6669 34.4277 14.5264 34.7668 14.2764 35.0169C14.0263 35.2669 13.6872 35.4074 13.3336 35.4074C12.9799 35.4074 12.6408 35.2669 12.3907 35.0169C12.1407 34.7668 12.0002 34.4277 12.0002 34.074C12.0002 33.7204 12.1407 33.3813 12.3907 33.1312C12.6408 32.8812 12.9799 32.7407 13.3336 32.7407ZM16.2965 32.7407C16.6501 32.7407 16.9893 32.8812 17.2393 33.1312C17.4894 33.3813 17.6298 33.7204 17.6298 34.074C17.6298 34.4277 17.4894 34.7668 17.2393 35.0169C16.9893 35.2669 16.6501 35.4074 16.2965 35.4074C15.9429 35.4074 15.6038 35.2669 15.3537 35.0169C15.1037 34.7668 14.9632 34.4277 14.9632 34.074C14.9632 33.7204 15.1037 33.3813 15.3537 33.1312C15.6038 32.8812 15.9429 32.7407 16.2965 32.7407ZM22.2224 32.7407C22.5761 32.7407 22.9152 32.8812 23.1652 33.1312C23.4153 33.3813 23.5558 33.7204 23.5558 34.074C23.5558 34.4277 23.4153 34.7668 23.1652 35.0169C22.9152 35.2669 22.5761 35.4074 22.2224 35.4074C21.8688 35.4074 21.5297 35.2669 21.2796 35.0169C21.0296 34.7668 20.8891 34.4277 20.8891 34.074C20.8891 33.7204 21.0296 33.3813 21.2796 33.1312C21.5297 32.8812 21.8688 32.7407 22.2224 32.7407ZM31.1113 32.7407C31.4649 32.7407 31.8041 32.8812 32.0541 33.1312C32.3042 33.3813 32.4447 33.7204 32.4447 34.074C32.4447 34.4277 32.3042 34.7668 32.0541 35.0169C31.8041 35.2669 31.4649 35.4074 31.1113 35.4074C30.7577 35.4074 30.4186 35.2669 30.1685 35.0169C29.9185 34.7668 29.778 34.4277 29.778 34.074C29.778 33.7204 29.9185 33.3813 30.1685 33.1312C30.4186 32.8812 30.7577 32.7407 31.1113 32.7407ZM34.0743 32.7407C34.4279 32.7407 34.7671 32.8812 35.0171 33.1312C35.2671 33.3813 35.4076 33.7204 35.4076 34.074C35.4076 34.4277 35.2671 34.7668 35.0171 35.0169C34.7671 35.2669 34.4279 35.4074 34.0743 35.4074C33.7207 35.4074 33.3815 35.2669 33.1315 35.0169C32.8814 34.7668 32.741 34.4277 32.741 34.074C32.741 33.7204 32.8814 33.3813 33.1315 33.1312C33.3815 32.8812 33.7207 32.7407 34.0743 32.7407ZM37.0373 32.7407C37.3909 32.7407 37.73 32.8812 37.9801 33.1312C38.2301 33.3813 38.3706 33.7204 38.3706 34.074C38.3706 34.4277 38.2301 34.7668 37.9801 35.0169C37.73 35.2669 37.3909 35.4074 37.0373 35.4074C36.6836 35.4074 36.3445 35.2669 36.0944 35.0169C35.8444 34.7668 35.7039 34.4277 35.7039 34.074C35.7039 33.7204 35.8444 33.3813 36.0944 33.1312C36.3445 32.8812 36.6836 32.7407 37.0373 32.7407ZM45.9261 32.7407C46.2798 32.7407 46.6189 32.8812 46.869 33.1312C47.119 33.3813 47.2595 33.7204 47.2595 34.074C47.2595 34.4277 47.119 34.7668 46.869 35.0169C46.6189 35.2669 46.2798 35.4074 45.9261 35.4074C45.5725 35.4074 45.2334 35.2669 44.9833 35.0169C44.7333 34.7668 44.5928 34.4277 44.5928 34.074C44.5928 33.7204 44.7333 33.3813 44.9833 33.1312C45.2334 32.8812 45.5725 32.7407 45.9261 32.7407ZM48.8891 32.7407C49.2427 32.7407 49.5819 32.8812 49.8319 33.1312C50.082 33.3813 50.2224 33.7204 50.2224 34.074C50.2224 34.4277 50.082 34.7668 49.8319 35.0169C49.5819 35.2669 49.2427 35.4074 48.8891 35.4074C48.5355 35.4074 48.1963 35.2669 47.9463 35.0169C47.6962 34.7668 47.5558 34.4277 47.5558 34.074C47.5558 33.7204 47.6962 33.3813 47.9463 33.1312C48.1963 32.8812 48.5355 32.7407 48.8891 32.7407ZM51.8521 32.7407C52.2057 32.7407 52.5448 32.8812 52.7949 33.1312C53.0449 33.3813 53.1854 33.7204 53.1854 34.074C53.1854 34.4277 53.0449 34.7668 52.7949 35.0169C52.5448 35.2669 52.2057 35.4074 51.8521 35.4074C51.4984 35.4074 51.1593 35.2669 50.9093 35.0169C50.6592 34.7668 50.5187 34.4277 50.5187 34.074C50.5187 33.7204 50.6592 33.3813 50.9093 33.1312C51.1593 32.8812 51.4984 32.7407 51.8521 32.7407ZM54.815 32.7407C55.1687 32.7407 55.5078 32.8812 55.7578 33.1312C56.0079 33.3813 56.1484 33.7204 56.1484 34.074C56.1484 34.4277 56.0079 34.7668 55.7578 35.0169C55.5078 35.2669 55.1687 35.4074 54.815 35.4074C54.4614 35.4074 54.1223 35.2669 53.8722 35.0169C53.6222 34.7668 53.4817 34.4277 53.4817 34.074C53.4817 33.7204 53.6222 33.3813 53.8722 33.1312C54.1223 32.8812 54.4614 32.7407 54.815 32.7407ZM57.778 32.7407C58.1316 32.7407 58.4708 32.8812 58.7208 33.1312C58.9709 33.3813 59.1113 33.7204 59.1113 34.074C59.1113 34.4277 58.9709 34.7668 58.7208 35.0169C58.4708 35.2669 58.1316 35.4074 57.778 35.4074C57.4244 35.4074 57.0852 35.2669 56.8352 35.0169C56.5851 34.7668 56.4447 34.4277 56.4447 34.074C56.4447 33.7204 56.5851 33.3813 56.8352 33.1312C57.0852 32.8812 57.4244 32.7407 57.778 32.7407ZM63.7039 32.7407C64.0575 32.7407 64.3967 32.8812 64.6467 33.1312C64.8968 33.3813 65.0373 33.7204 65.0373 34.074C65.0373 34.4277 64.8968 34.7668 64.6467 35.0169C64.3967 35.2669 64.0575 35.4074 63.7039 35.4074C63.3503 35.4074 63.0112 35.2669 62.7611 35.0169C62.5111 34.7668 62.3706 34.4277 62.3706 34.074C62.3706 33.7204 62.5111 33.3813 62.7611 33.1312C63.0112 32.8812 63.3503 32.7407 63.7039 32.7407ZM66.6669 32.7407C67.0205 32.7407 67.3596 32.8812 67.6097 33.1312C67.8597 33.3813 68.0002 33.7204 68.0002 34.074C68.0002 34.4277 67.8597 34.7668 67.6097 35.0169C67.3596 35.2669 67.0205 35.4074 66.6669 35.4074C66.3133 35.4074 65.9741 35.2669 65.7241 35.0169C65.474 34.7668 65.3335 34.4277 65.3335 34.074C65.3335 33.7204 65.474 33.3813 65.7241 33.1312C65.9741 32.8812 66.3133 32.7407 66.6669 32.7407ZM69.6298 32.7407C69.9835 32.7407 70.3226 32.8812 70.5727 33.1312C70.8227 33.3813 70.9632 33.7204 70.9632 34.074C70.9632 34.4277 70.8227 34.7668 70.5727 35.0169C70.3226 35.2669 69.9835 35.4074 69.6298 35.4074C69.2762 35.4074 68.9371 35.2669 68.687 35.0169C68.437 34.7668 68.2965 34.4277 68.2965 34.074C68.2965 33.7204 68.437 33.3813 68.687 33.1312C68.9371 32.8812 69.2762 32.7407 69.6298 32.7407ZM4.44466 35.7037C4.79828 35.7037 5.13742 35.8442 5.38747 36.0942C5.63752 36.3442 5.77799 36.6834 5.77799 37.037C5.77799 37.2121 5.74351 37.3855 5.6765 37.5473C5.60949 37.709 5.51128 37.856 5.38747 37.9798C5.26366 38.1036 5.11667 38.2018 4.95491 38.2688C4.79314 38.3359 4.61976 38.3703 4.44466 38.3703C4.09104 38.3703 3.7519 38.2299 3.50185 37.9798C3.2518 37.7298 3.11133 37.3906 3.11133 37.037C3.11133 36.6834 3.2518 36.3442 3.50185 36.0942C3.7519 35.8442 4.09104 35.7037 4.44466 35.7037ZM13.3336 35.7037C13.6872 35.7037 14.0263 35.8442 14.2764 36.0942C14.5264 36.3442 14.6669 36.6834 14.6669 37.037C14.6669 37.3906 14.5264 37.7298 14.2764 37.9798C14.0263 38.2299 13.6872 38.3703 13.3336 38.3703C12.9799 38.3703 12.6408 38.2299 12.3907 37.9798C12.1407 37.7298 12.0002 37.3906 12.0002 37.037C12.0002 36.6834 12.1407 36.3442 12.3907 36.0942C12.6408 35.8442 12.9799 35.7037 13.3336 35.7037ZM25.1854 35.7037C25.539 35.7037 25.8782 35.8442 26.1282 36.0942C26.3783 36.3442 26.5187 36.6834 26.5187 37.037C26.5187 37.3906 26.3783 37.7298 26.1282 37.9798C25.8782 38.2299 25.539 38.3703 25.1854 38.3703C24.8318 38.3703 24.4926 38.2299 24.2426 37.9798C23.9925 37.7298 23.8521 37.3906 23.8521 37.037C23.8521 36.6834 23.9925 36.3442 24.2426 36.0942C24.4926 35.8442 24.8318 35.7037 25.1854 35.7037ZM31.1113 35.7037C31.4649 35.7037 31.8041 35.8442 32.0541 36.0942C32.3042 36.3442 32.4447 36.6834 32.4447 37.037C32.4447 37.3906 32.3042 37.7298 32.0541 37.9798C31.8041 38.2299 31.4649 38.3703 31.1113 38.3703C30.7577 38.3703 30.4186 38.2299 30.1685 37.9798C29.9185 37.7298 29.778 37.3906 29.778 37.037C29.778 36.6834 29.9185 36.3442 30.1685 36.0942C30.4186 35.8442 30.7577 35.7037 31.1113 35.7037ZM37.0373 35.7037C37.3909 35.7037 37.73 35.8442 37.9801 36.0942C38.2301 36.3442 38.3706 36.6834 38.3706 37.037C38.3706 37.3906 38.2301 37.7298 37.9801 37.9798C37.73 38.2299 37.3909 38.3703 37.0373 38.3703C36.6836 38.3703 36.3445 38.2299 36.0944 37.9798C35.8444 37.7298 35.7039 37.3906 35.7039 37.037C35.7039 36.6834 35.8444 36.3442 36.0944 36.0942C36.3445 35.8442 36.6836 35.7037 37.0373 35.7037ZM45.9261 35.7037C46.2798 35.7037 46.6189 35.8442 46.869 36.0942C47.119 36.3442 47.2595 36.6834 47.2595 37.037C47.2595 37.3906 47.119 37.7298 46.869 37.9798C46.6189 38.2299 46.2798 38.3703 45.9261 38.3703C45.5725 38.3703 45.2334 38.2299 44.9833 37.9798C44.7333 37.7298 44.5928 37.3906 44.5928 37.037C44.5928 36.6834 44.7333 36.3442 44.9833 36.0942C45.2334 35.8442 45.5725 35.7037 45.9261 35.7037ZM48.8891 35.7037C49.2427 35.7037 49.5819 35.8442 49.8319 36.0942C50.082 36.3442 50.2224 36.6834 50.2224 37.037C50.2224 37.3906 50.082 37.7298 49.8319 37.9798C49.5819 38.2299 49.2427 38.3703 48.8891 38.3703C48.5355 38.3703 48.1963 38.2299 47.9463 37.9798C47.6962 37.7298 47.5558 37.3906 47.5558 37.037C47.5558 36.6834 47.6962 36.3442 47.9463 36.0942C48.1963 35.8442 48.5355 35.7037 48.8891 35.7037ZM60.741 35.7037C61.0946 35.7037 61.4337 35.8442 61.6838 36.0942C61.9338 36.3442 62.0743 36.6834 62.0743 37.037C62.0743 37.3906 61.9338 37.7298 61.6838 37.9798C61.4337 38.2299 61.0946 38.3703 60.741 38.3703C60.3873 38.3703 60.0482 38.2299 59.7982 37.9798C59.5481 37.7298 59.4076 37.3906 59.4076 37.037C59.4076 36.6834 59.5481 36.3442 59.7982 36.0942C60.0482 35.8442 60.3873 35.7037 60.741 35.7037ZM69.6298 35.7037C69.9835 35.7037 70.3226 35.8442 70.5727 36.0942C70.8227 36.3442 70.9632 36.6834 70.9632 37.037C70.9632 37.3906 70.8227 37.7298 70.5727 37.9798C70.3226 38.2299 69.9835 38.3703 69.6298 38.3703C69.2762 38.3703 68.9371 38.2299 68.687 37.9798C68.437 37.7298 68.2965 37.3906 68.2965 37.037C68.2965 36.6834 68.437 36.3442 68.687 36.0942C68.9371 35.8442 69.2762 35.7037 69.6298 35.7037ZM72.5928 35.7037C72.9464 35.7037 73.2856 35.8442 73.5356 36.0942C73.7857 36.3442 73.9261 36.6834 73.9261 37.037C73.9261 37.3906 73.7857 37.7298 73.5356 37.9798C73.2856 38.2299 72.9464 38.3703 72.5928 38.3703C72.2392 38.3703 71.9001 38.2299 71.65 37.9798C71.4 37.7298 71.2595 37.3906 71.2595 37.037C71.2595 36.6834 71.4 36.3442 71.65 36.0942C71.9001 35.8442 72.2392 35.7037 72.5928 35.7037ZM4.44466 38.6666C4.79828 38.6666 5.13742 38.8071 5.38747 39.0572C5.63752 39.3072 5.77799 39.6463 5.77799 40C5.77799 40.1751 5.74351 40.3484 5.6765 40.5102C5.60949 40.672 5.51128 40.819 5.38747 40.9428C5.26366 41.0666 5.11667 41.1648 4.95491 41.2318C4.79314 41.2988 4.61976 41.3333 4.44466 41.3333C4.09104 41.3333 3.7519 41.1928 3.50185 40.9428C3.2518 40.6927 3.11133 40.3536 3.11133 40C3.11133 39.6463 3.2518 39.3072 3.50185 39.0572C3.7519 38.8071 4.09104 38.6666 4.44466 38.6666ZM7.40762 38.6666C7.76125 38.6666 8.10039 38.8071 8.35043 39.0572C8.60048 39.3072 8.74096 39.6463 8.74096 40C8.74096 40.3536 8.60048 40.6927 8.35043 40.9428C8.10039 41.1928 7.76125 41.3333 7.40762 41.3333C7.054 41.3333 6.71486 41.1928 6.46482 40.9428C6.21477 40.6927 6.07429 40.3536 6.07429 40C6.07429 39.6463 6.21477 39.3072 6.46482 39.0572C6.71486 38.8071 7.054 38.6666 7.40762 38.6666ZM22.2224 38.6666C22.5761 38.6666 22.9152 38.8071 23.1652 39.0572C23.4153 39.3072 23.5558 39.6463 23.5558 40C23.5558 40.3536 23.4153 40.6927 23.1652 40.9428C22.9152 41.1928 22.5761 41.3333 22.2224 41.3333C21.8688 41.3333 21.5297 41.1928 21.2796 40.9428C21.0296 40.6927 20.8891 40.3536 20.8891 40C20.8891 39.6463 21.0296 39.3072 21.2796 39.0572C21.5297 38.8071 21.8688 38.6666 22.2224 38.6666ZM25.1854 38.6666C25.539 38.6666 25.8782 38.8071 26.1282 39.0572C26.3783 39.3072 26.5187 39.6463 26.5187 40C26.5187 40.3536 26.3783 40.6927 26.1282 40.9428C25.8782 41.1928 25.539 41.3333 25.1854 41.3333C24.8318 41.3333 24.4926 41.1928 24.2426 40.9428C23.9925 40.6927 23.8521 40.3536 23.8521 40C23.8521 39.6463 23.9925 39.3072 24.2426 39.0572C24.4926 38.8071 24.8318 38.6666 25.1854 38.6666ZM28.1484 38.6666C28.502 38.6666 28.8411 38.8071 29.0912 39.0572C29.3412 39.3072 29.4817 39.6463 29.4817 40C29.4817 40.3536 29.3412 40.6927 29.0912 40.9428C28.8411 41.1928 28.502 41.3333 28.1484 41.3333C27.7947 41.3333 27.4556 41.1928 27.2056 40.9428C26.9555 40.6927 26.815 40.3536 26.815 40C26.815 39.6463 26.9555 39.3072 27.2056 39.0572C27.4556 38.8071 27.7947 38.6666 28.1484 38.6666ZM37.0373 38.6666C37.3909 38.6666 37.73 38.8071 37.9801 39.0572C38.2301 39.3072 38.3706 39.6463 38.3706 40C38.3706 40.3536 38.2301 40.6927 37.9801 40.9428C37.73 41.1928 37.3909 41.3333 37.0373 41.3333C36.6836 41.3333 36.3445 41.1928 36.0944 40.9428C35.8444 40.6927 35.7039 40.3536 35.7039 40C35.7039 39.6463 35.8444 39.3072 36.0944 39.0572C36.3445 38.8071 36.6836 38.6666 37.0373 38.6666ZM40.0002 38.6666C40.3538 38.6666 40.693 38.8071 40.943 39.0572C41.1931 39.3072 41.3335 39.6463 41.3335 40C41.3335 40.3536 41.1931 40.6927 40.943 40.9428C40.693 41.1928 40.3538 41.3333 40.0002 41.3333C39.6466 41.3333 39.3075 41.1928 39.0574 40.9428C38.8074 40.6927 38.6669 40.3536 38.6669 40C38.6669 39.6463 38.8074 39.3072 39.0574 39.0572C39.3075 38.8071 39.6466 38.6666 40.0002 38.6666ZM45.9261 38.6666C46.2798 38.6666 46.6189 38.8071 46.869 39.0572C47.119 39.3072 47.2595 39.6463 47.2595 40C47.2595 40.3536 47.119 40.6927 46.869 40.9428C46.6189 41.1928 46.2798 41.3333 45.9261 41.3333C45.5725 41.3333 45.2334 41.1928 44.9833 40.9428C44.7333 40.6927 44.5928 40.3536 44.5928 40C44.5928 39.6463 44.7333 39.3072 44.9833 39.0572C45.2334 38.8071 45.5725 38.6666 45.9261 38.6666ZM51.8521 38.6666C52.2057 38.6666 52.5448 38.8071 52.7949 39.0572C53.0449 39.3072 53.1854 39.6463 53.1854 40C53.1854 40.3536 53.0449 40.6927 52.7949 40.9428C52.5448 41.1928 52.2057 41.3333 51.8521 41.3333C51.4984 41.3333 51.1593 41.1928 50.9093 40.9428C50.6592 40.6927 50.5187 40.3536 50.5187 40C50.5187 39.6463 50.6592 39.3072 50.9093 39.0572C51.1593 38.8071 51.4984 38.6666 51.8521 38.6666ZM54.815 38.6666C55.1687 38.6666 55.5078 38.8071 55.7578 39.0572C56.0079 39.3072 56.1484 39.6463 56.1484 40C56.1484 40.3536 56.0079 40.6927 55.7578 40.9428C55.5078 41.1928 55.1687 41.3333 54.815 41.3333C54.4614 41.3333 54.1223 41.1928 53.8722 40.9428C53.6222 40.6927 53.4817 40.3536 53.4817 40C53.4817 39.6463 53.6222 39.3072 53.8722 39.0572C54.1223 38.8071 54.4614 38.6666 54.815 38.6666ZM57.778 38.6666C58.1316 38.6666 58.4708 38.8071 58.7208 39.0572C58.9709 39.3072 59.1113 39.6463 59.1113 40C59.1113 40.3536 58.9709 40.6927 58.7208 40.9428C58.4708 41.1928 58.1316 41.3333 57.778 41.3333C57.4244 41.3333 57.0852 41.1928 56.8352 40.9428C56.5851 40.6927 56.4447 40.3536 56.4447 40C56.4447 39.6463 56.5851 39.3072 56.8352 39.0572C57.0852 38.8071 57.4244 38.6666 57.778 38.6666ZM60.741 38.6666C61.0946 38.6666 61.4337 38.8071 61.6838 39.0572C61.9338 39.3072 62.0743 39.6463 62.0743 40C62.0743 40.3536 61.9338 40.6927 61.6838 40.9428C61.4337 41.1928 61.0946 41.3333 60.741 41.3333C60.3873 41.3333 60.0482 41.1928 59.7982 40.9428C59.5481 40.6927 59.4076 40.3536 59.4076 40C59.4076 39.6463 59.5481 39.3072 59.7982 39.0572C60.0482 38.8071 60.3873 38.6666 60.741 38.6666ZM66.6669 38.6666C67.0205 38.6666 67.3596 38.8071 67.6097 39.0572C67.8597 39.3072 68.0002 39.6463 68.0002 40C68.0002 40.3536 67.8597 40.6927 67.6097 40.9428C67.3596 41.1928 67.0205 41.3333 66.6669 41.3333C66.3133 41.3333 65.9741 41.1928 65.7241 40.9428C65.474 40.6927 65.3335 40.3536 65.3335 40C65.3335 39.6463 65.474 39.3072 65.7241 39.0572C65.9741 38.8071 66.3133 38.6666 66.6669 38.6666ZM69.6298 38.6666C69.9835 38.6666 70.3226 38.8071 70.5727 39.0572C70.8227 39.3072 70.9632 39.6463 70.9632 40C70.9632 40.3536 70.8227 40.6927 70.5727 40.9428C70.3226 41.1928 69.9835 41.3333 69.6298 41.3333C69.2762 41.3333 68.9371 41.1928 68.687 40.9428C68.437 40.6927 68.2965 40.3536 68.2965 40C68.2965 39.6463 68.437 39.3072 68.687 39.0572C68.9371 38.8071 69.2762 38.6666 69.6298 38.6666ZM72.5928 38.6666C72.9464 38.6666 73.2856 38.8071 73.5356 39.0572C73.7857 39.3072 73.9261 39.6463 73.9261 40C73.9261 40.3536 73.7857 40.6927 73.5356 40.9428C73.2856 41.1928 72.9464 41.3333 72.5928 41.3333C72.2392 41.3333 71.9001 41.1928 71.65 40.9428C71.4 40.6927 71.2595 40.3536 71.2595 40C71.2595 39.6463 71.4 39.3072 71.65 39.0572C71.9001 38.8071 72.2392 38.6666 72.5928 38.6666ZM75.5558 38.6666C75.9094 38.6666 76.2485 38.8071 76.4986 39.0572C76.7486 39.3072 76.8891 39.6463 76.8891 40C76.8891 40.3536 76.7486 40.6927 76.4986 40.9428C76.2485 41.1928 75.9094 41.3333 75.5558 41.3333C75.2022 41.3333 74.863 41.1928 74.613 40.9428C74.3629 40.6927 74.2224 40.3536 74.2224 40C74.2224 39.6463 74.3629 39.3072 74.613 39.0572C74.863 38.8071 75.2022 38.6666 75.5558 38.6666ZM4.44466 41.6296C4.79828 41.6296 5.13742 41.7701 5.38747 42.0201C5.63752 42.2702 5.77799 42.6093 5.77799 42.9629C5.77799 43.138 5.74351 43.3114 5.6765 43.4732C5.60949 43.6349 5.51128 43.7819 5.38747 43.9057C5.26366 44.0296 5.11667 44.1278 4.95491 44.1948C4.79314 44.2618 4.61976 44.2963 4.44466 44.2963C4.09104 44.2963 3.7519 44.1558 3.50185 43.9057C3.2518 43.6557 3.11133 43.3166 3.11133 42.9629C3.11133 42.6093 3.2518 42.2702 3.50185 42.0201C3.7519 41.7701 4.09104 41.6296 4.44466 41.6296ZM13.3336 41.6296C13.6872 41.6296 14.0263 41.7701 14.2764 42.0201C14.5264 42.2702 14.6669 42.6093 14.6669 42.9629C14.6669 43.3166 14.5264 43.6557 14.2764 43.9057C14.0263 44.1558 13.6872 44.2963 13.3336 44.2963C12.9799 44.2963 12.6408 44.1558 12.3907 43.9057C12.1407 43.6557 12.0002 43.3166 12.0002 42.9629C12.0002 42.6093 12.1407 42.2702 12.3907 42.0201C12.6408 41.7701 12.9799 41.6296 13.3336 41.6296ZM16.2965 41.6296C16.6501 41.6296 16.9893 41.7701 17.2393 42.0201C17.4894 42.2702 17.6298 42.6093 17.6298 42.9629C17.6298 43.3166 17.4894 43.6557 17.2393 43.9057C16.9893 44.1558 16.6501 44.2963 16.2965 44.2963C15.9429 44.2963 15.6038 44.1558 15.3537 43.9057C15.1037 43.6557 14.9632 43.3166 14.9632 42.9629C14.9632 42.6093 15.1037 42.2702 15.3537 42.0201C15.6038 41.7701 15.9429 41.6296 16.2965 41.6296ZM25.1854 41.6296C25.539 41.6296 25.8782 41.7701 26.1282 42.0201C26.3783 42.2702 26.5187 42.6093 26.5187 42.9629C26.5187 43.3166 26.3783 43.6557 26.1282 43.9057C25.8782 44.1558 25.539 44.2963 25.1854 44.2963C24.8318 44.2963 24.4926 44.1558 24.2426 43.9057C23.9925 43.6557 23.8521 43.3166 23.8521 42.9629C23.8521 42.6093 23.9925 42.2702 24.2426 42.0201C24.4926 41.7701 24.8318 41.6296 25.1854 41.6296ZM31.1113 41.6296C31.4649 41.6296 31.8041 41.7701 32.0541 42.0201C32.3042 42.2702 32.4447 42.6093 32.4447 42.9629C32.4447 43.3166 32.3042 43.6557 32.0541 43.9057C31.8041 44.1558 31.4649 44.2963 31.1113 44.2963C30.7577 44.2963 30.4186 44.1558 30.1685 43.9057C29.9185 43.6557 29.778 43.3166 29.778 42.9629C29.778 42.6093 29.9185 42.2702 30.1685 42.0201C30.4186 41.7701 30.7577 41.6296 31.1113 41.6296ZM34.0743 41.6296C34.4279 41.6296 34.7671 41.7701 35.0171 42.0201C35.2671 42.2702 35.4076 42.6093 35.4076 42.9629C35.4076 43.3166 35.2671 43.6557 35.0171 43.9057C34.7671 44.1558 34.4279 44.2963 34.0743 44.2963C33.7207 44.2963 33.3815 44.1558 33.1315 43.9057C32.8814 43.6557 32.741 43.3166 32.741 42.9629C32.741 42.6093 32.8814 42.2702 33.1315 42.0201C33.3815 41.7701 33.7207 41.6296 34.0743 41.6296ZM37.0373 41.6296C37.3909 41.6296 37.73 41.7701 37.9801 42.0201C38.2301 42.2702 38.3706 42.6093 38.3706 42.9629C38.3706 43.3166 38.2301 43.6557 37.9801 43.9057C37.73 44.1558 37.3909 44.2963 37.0373 44.2963C36.6836 44.2963 36.3445 44.1558 36.0944 43.9057C35.8444 43.6557 35.7039 43.3166 35.7039 42.9629C35.7039 42.6093 35.8444 42.2702 36.0944 42.0201C36.3445 41.7701 36.6836 41.6296 37.0373 41.6296ZM45.9261 41.6296C46.2798 41.6296 46.6189 41.7701 46.869 42.0201C47.119 42.2702 47.2595 42.6093 47.2595 42.9629C47.2595 43.3166 47.119 43.6557 46.869 43.9057C46.6189 44.1558 46.2798 44.2963 45.9261 44.2963C45.5725 44.2963 45.2334 44.1558 44.9833 43.9057C44.7333 43.6557 44.5928 43.3166 44.5928 42.9629C44.5928 42.6093 44.7333 42.2702 44.9833 42.0201C45.2334 41.7701 45.5725 41.6296 45.9261 41.6296ZM48.8891 41.6296C49.2427 41.6296 49.5819 41.7701 49.8319 42.0201C50.082 42.2702 50.2224 42.6093 50.2224 42.9629C50.2224 43.3166 50.082 43.6557 49.8319 43.9057C49.5819 44.1558 49.2427 44.2963 48.8891 44.2963C48.5355 44.2963 48.1963 44.1558 47.9463 43.9057C47.6962 43.6557 47.5558 43.3166 47.5558 42.9629C47.5558 42.6093 47.6962 42.2702 47.9463 42.0201C48.1963 41.7701 48.5355 41.6296 48.8891 41.6296ZM51.8521 41.6296C52.2057 41.6296 52.5448 41.7701 52.7949 42.0201C53.0449 42.2702 53.1854 42.6093 53.1854 42.9629C53.1854 43.3166 53.0449 43.6557 52.7949 43.9057C52.5448 44.1558 52.2057 44.2963 51.8521 44.2963C51.4984 44.2963 51.1593 44.1558 50.9093 43.9057C50.6592 43.6557 50.5187 43.3166 50.5187 42.9629C50.5187 42.6093 50.6592 42.2702 50.9093 42.0201C51.1593 41.7701 51.4984 41.6296 51.8521 41.6296ZM54.815 41.6296C55.1687 41.6296 55.5078 41.7701 55.7578 42.0201C56.0079 42.2702 56.1484 42.6093 56.1484 42.9629C56.1484 43.3166 56.0079 43.6557 55.7578 43.9057C55.5078 44.1558 55.1687 44.2963 54.815 44.2963C54.4614 44.2963 54.1223 44.1558 53.8722 43.9057C53.6222 43.6557 53.4817 43.3166 53.4817 42.9629C53.4817 42.6093 53.6222 42.2702 53.8722 42.0201C54.1223 41.7701 54.4614 41.6296 54.815 41.6296ZM63.7039 41.6296C64.0575 41.6296 64.3967 41.7701 64.6467 42.0201C64.8968 42.2702 65.0373 42.6093 65.0373 42.9629C65.0373 43.3166 64.8968 43.6557 64.6467 43.9057C64.3967 44.1558 64.0575 44.2963 63.7039 44.2963C63.3503 44.2963 63.0112 44.1558 62.7611 43.9057C62.5111 43.6557 62.3706 43.3166 62.3706 42.9629C62.3706 42.6093 62.5111 42.2702 62.7611 42.0201C63.0112 41.7701 63.3503 41.6296 63.7039 41.6296ZM72.5928 41.6296C72.9464 41.6296 73.2856 41.7701 73.5356 42.0201C73.7857 42.2702 73.9261 42.6093 73.9261 42.9629C73.9261 43.3166 73.7857 43.6557 73.5356 43.9057C73.2856 44.1558 72.9464 44.2963 72.5928 44.2963C72.2392 44.2963 71.9001 44.1558 71.65 43.9057C71.4 43.6557 71.2595 43.3166 71.2595 42.9629C71.2595 42.6093 71.4 42.2702 71.65 42.0201C71.9001 41.7701 72.2392 41.6296 72.5928 41.6296ZM10.3706 44.5926C10.7242 44.5926 11.0633 44.733 11.3134 44.9831C11.5634 45.2331 11.7039 45.5723 11.7039 45.9259C11.7039 46.2795 11.5634 46.6187 11.3134 46.8687C11.0633 47.1188 10.7242 47.2592 10.3706 47.2592C10.017 47.2592 9.67783 47.1188 9.42778 46.8687C9.17773 46.6187 9.03725 46.2795 9.03725 45.9259C9.03725 45.5723 9.17773 45.2331 9.42778 44.9831C9.67783 44.733 10.017 44.5926 10.3706 44.5926ZM22.2224 44.5926C22.5761 44.5926 22.9152 44.733 23.1652 44.9831C23.4153 45.2331 23.5558 45.5723 23.5558 45.9259C23.5558 46.2795 23.4153 46.6187 23.1652 46.8687C22.9152 47.1188 22.5761 47.2592 22.2224 47.2592C21.8688 47.2592 21.5297 47.1188 21.2796 46.8687C21.0296 46.6187 20.8891 46.2795 20.8891 45.9259C20.8891 45.5723 21.0296 45.2331 21.2796 44.9831C21.5297 44.733 21.8688 44.5926 22.2224 44.5926ZM25.1854 44.5926C25.539 44.5926 25.8782 44.733 26.1282 44.9831C26.3783 45.2331 26.5187 45.5723 26.5187 45.9259C26.5187 46.2795 26.3783 46.6187 26.1282 46.8687C25.8782 47.1188 25.539 47.2592 25.1854 47.2592C24.8318 47.2592 24.4926 47.1188 24.2426 46.8687C23.9925 46.6187 23.8521 46.2795 23.8521 45.9259C23.8521 45.5723 23.9925 45.2331 24.2426 44.9831C24.4926 44.733 24.8318 44.5926 25.1854 44.5926ZM28.1484 44.5926C28.502 44.5926 28.8411 44.733 29.0912 44.9831C29.3412 45.2331 29.4817 45.5723 29.4817 45.9259C29.4817 46.2795 29.3412 46.6187 29.0912 46.8687C28.8411 47.1188 28.502 47.2592 28.1484 47.2592C27.7947 47.2592 27.4556 47.1188 27.2056 46.8687C26.9555 46.6187 26.815 46.2795 26.815 45.9259C26.815 45.5723 26.9555 45.2331 27.2056 44.9831C27.4556 44.733 27.7947 44.5926 28.1484 44.5926ZM31.1113 44.5926C31.4649 44.5926 31.8041 44.733 32.0541 44.9831C32.3042 45.2331 32.4447 45.5723 32.4447 45.9259C32.4447 46.2795 32.3042 46.6187 32.0541 46.8687C31.8041 47.1188 31.4649 47.2592 31.1113 47.2592C30.7577 47.2592 30.4186 47.1188 30.1685 46.8687C29.9185 46.6187 29.778 46.2795 29.778 45.9259C29.778 45.5723 29.9185 45.2331 30.1685 44.9831C30.4186 44.733 30.7577 44.5926 31.1113 44.5926ZM37.0373 44.5926C37.3909 44.5926 37.73 44.733 37.9801 44.9831C38.2301 45.2331 38.3706 45.5723 38.3706 45.9259C38.3706 46.2795 38.2301 46.6187 37.9801 46.8687C37.73 47.1188 37.3909 47.2592 37.0373 47.2592C36.6836 47.2592 36.3445 47.1188 36.0944 46.8687C35.8444 46.6187 35.7039 46.2795 35.7039 45.9259C35.7039 45.5723 35.8444 45.2331 36.0944 44.9831C36.3445 44.733 36.6836 44.5926 37.0373 44.5926ZM40.0002 44.5926C40.3538 44.5926 40.693 44.733 40.943 44.9831C41.1931 45.2331 41.3335 45.5723 41.3335 45.9259C41.3335 46.2795 41.1931 46.6187 40.943 46.8687C40.693 47.1188 40.3538 47.2592 40.0002 47.2592C39.6466 47.2592 39.3075 47.1188 39.0574 46.8687C38.8074 46.6187 38.6669 46.2795 38.6669 45.9259C38.6669 45.5723 38.8074 45.2331 39.0574 44.9831C39.3075 44.733 39.6466 44.5926 40.0002 44.5926ZM42.9632 44.5926C43.3168 44.5926 43.6559 44.733 43.906 44.9831C44.156 45.2331 44.2965 45.5723 44.2965 45.9259C44.2965 46.2795 44.156 46.6187 43.906 46.8687C43.6559 47.1188 43.3168 47.2592 42.9632 47.2592C42.6096 47.2592 42.2704 47.1188 42.0204 46.8687C41.7703 46.6187 41.6298 46.2795 41.6298 45.9259C41.6298 45.5723 41.7703 45.2331 42.0204 44.9831C42.2704 44.733 42.6096 44.5926 42.9632 44.5926ZM45.9261 44.5926C46.2798 44.5926 46.6189 44.733 46.869 44.9831C47.119 45.2331 47.2595 45.5723 47.2595 45.9259C47.2595 46.2795 47.119 46.6187 46.869 46.8687C46.6189 47.1188 46.2798 47.2592 45.9261 47.2592C45.5725 47.2592 45.2334 47.1188 44.9833 46.8687C44.7333 46.6187 44.5928 46.2795 44.5928 45.9259C44.5928 45.5723 44.7333 45.2331 44.9833 44.9831C45.2334 44.733 45.5725 44.5926 45.9261 44.5926ZM48.8891 44.5926C49.2427 44.5926 49.5819 44.733 49.8319 44.9831C50.082 45.2331 50.2224 45.5723 50.2224 45.9259C50.2224 46.2795 50.082 46.6187 49.8319 46.8687C49.5819 47.1188 49.2427 47.2592 48.8891 47.2592C48.5355 47.2592 48.1963 47.1188 47.9463 46.8687C47.6962 46.6187 47.5558 46.2795 47.5558 45.9259C47.5558 45.5723 47.6962 45.2331 47.9463 44.9831C48.1963 44.733 48.5355 44.5926 48.8891 44.5926ZM51.8521 44.5926C52.2057 44.5926 52.5448 44.733 52.7949 44.9831C53.0449 45.2331 53.1854 45.5723 53.1854 45.9259C53.1854 46.2795 53.0449 46.6187 52.7949 46.8687C52.5448 47.1188 52.2057 47.2592 51.8521 47.2592C51.4984 47.2592 51.1593 47.1188 50.9093 46.8687C50.6592 46.6187 50.5187 46.2795 50.5187 45.9259C50.5187 45.5723 50.6592 45.2331 50.9093 44.9831C51.1593 44.733 51.4984 44.5926 51.8521 44.5926ZM60.741 44.5926C61.0946 44.5926 61.4337 44.733 61.6838 44.9831C61.9338 45.2331 62.0743 45.5723 62.0743 45.9259C62.0743 46.2795 61.9338 46.6187 61.6838 46.8687C61.4337 47.1188 61.0946 47.2592 60.741 47.2592C60.3873 47.2592 60.0482 47.1188 59.7982 46.8687C59.5481 46.6187 59.4076 46.2795 59.4076 45.9259C59.4076 45.5723 59.5481 45.2331 59.7982 44.9831C60.0482 44.733 60.3873 44.5926 60.741 44.5926ZM63.7039 44.5926C64.0575 44.5926 64.3967 44.733 64.6467 44.9831C64.8968 45.2331 65.0373 45.5723 65.0373 45.9259C65.0373 46.2795 64.8968 46.6187 64.6467 46.8687C64.3967 47.1188 64.0575 47.2592 63.7039 47.2592C63.3503 47.2592 63.0112 47.1188 62.7611 46.8687C62.5111 46.6187 62.3706 46.2795 62.3706 45.9259C62.3706 45.5723 62.5111 45.2331 62.7611 44.9831C63.0112 44.733 63.3503 44.5926 63.7039 44.5926ZM66.6669 44.5926C67.0205 44.5926 67.3596 44.733 67.6097 44.9831C67.8597 45.2331 68.0002 45.5723 68.0002 45.9259C68.0002 46.2795 67.8597 46.6187 67.6097 46.8687C67.3596 47.1188 67.0205 47.2592 66.6669 47.2592C66.3133 47.2592 65.9741 47.1188 65.7241 46.8687C65.474 46.6187 65.3335 46.2795 65.3335 45.9259C65.3335 45.5723 65.474 45.2331 65.7241 44.9831C65.9741 44.733 66.3133 44.5926 66.6669 44.5926ZM69.6298 44.5926C69.9835 44.5926 70.3226 44.733 70.5727 44.9831C70.8227 45.2331 70.9632 45.5723 70.9632 45.9259C70.9632 46.2795 70.8227 46.6187 70.5727 46.8687C70.3226 47.1188 69.9835 47.2592 69.6298 47.2592C69.2762 47.2592 68.9371 47.1188 68.687 46.8687C68.437 46.6187 68.2965 46.2795 68.2965 45.9259C68.2965 45.5723 68.437 45.2331 68.687 44.9831C68.9371 44.733 69.2762 44.5926 69.6298 44.5926ZM13.3336 47.5555C13.6872 47.5555 14.0263 47.696 14.2764 47.9461C14.5264 48.1961 14.6669 48.5352 14.6669 48.8889C14.6669 49.2425 14.5264 49.5816 14.2764 49.8317C14.0263 50.0817 13.6872 50.2222 13.3336 50.2222C12.9799 50.2222 12.6408 50.0817 12.3907 49.8317C12.1407 49.5816 12.0002 49.2425 12.0002 48.8889C12.0002 48.5352 12.1407 48.1961 12.3907 47.9461C12.6408 47.696 12.9799 47.5555 13.3336 47.5555ZM31.1113 47.5555C31.4649 47.5555 31.8041 47.696 32.0541 47.9461C32.3042 48.1961 32.4447 48.5352 32.4447 48.8889C32.4447 49.2425 32.3042 49.5816 32.0541 49.8317C31.8041 50.0817 31.4649 50.2222 31.1113 50.2222C30.7577 50.2222 30.4186 50.0817 30.1685 49.8317C29.9185 49.5816 29.778 49.2425 29.778 48.8889C29.778 48.5352 29.9185 48.1961 30.1685 47.9461C30.4186 47.696 30.7577 47.5555 31.1113 47.5555ZM34.0743 47.5555C34.4279 47.5555 34.7671 47.696 35.0171 47.9461C35.2671 48.1961 35.4076 48.5352 35.4076 48.8889C35.4076 49.2425 35.2671 49.5816 35.0171 49.8317C34.7671 50.0817 34.4279 50.2222 34.0743 50.2222C33.7207 50.2222 33.3815 50.0817 33.1315 49.8317C32.8814 49.5816 32.741 49.2425 32.741 48.8889C32.741 48.5352 32.8814 48.1961 33.1315 47.9461C33.3815 47.696 33.7207 47.5555 34.0743 47.5555ZM40.0002 47.5555C40.3538 47.5555 40.693 47.696 40.943 47.9461C41.1931 48.1961 41.3335 48.5352 41.3335 48.8889C41.3335 49.2425 41.1931 49.5816 40.943 49.8317C40.693 50.0817 40.3538 50.2222 40.0002 50.2222C39.6466 50.2222 39.3075 50.0817 39.0574 49.8317C38.8074 49.5816 38.6669 49.2425 38.6669 48.8889C38.6669 48.5352 38.8074 48.1961 39.0574 47.9461C39.3075 47.696 39.6466 47.5555 40.0002 47.5555ZM54.815 47.5555C55.1687 47.5555 55.5078 47.696 55.7578 47.9461C56.0079 48.1961 56.1484 48.5352 56.1484 48.8889C56.1484 49.2425 56.0079 49.5816 55.7578 49.8317C55.5078 50.0817 55.1687 50.2222 54.815 50.2222C54.4614 50.2222 54.1223 50.0817 53.8722 49.8317C53.6222 49.5816 53.4817 49.2425 53.4817 48.8889C53.4817 48.5352 53.6222 48.1961 53.8722 47.9461C54.1223 47.696 54.4614 47.5555 54.815 47.5555ZM60.741 47.5555C61.0946 47.5555 61.4337 47.696 61.6838 47.9461C61.9338 48.1961 62.0743 48.5352 62.0743 48.8889C62.0743 49.2425 61.9338 49.5816 61.6838 49.8317C61.4337 50.0817 61.0946 50.2222 60.741 50.2222C60.3873 50.2222 60.0482 50.0817 59.7982 49.8317C59.5481 49.5816 59.4076 49.2425 59.4076 48.8889C59.4076 48.5352 59.5481 48.1961 59.7982 47.9461C60.0482 47.696 60.3873 47.5555 60.741 47.5555ZM63.7039 47.5555C64.0575 47.5555 64.3967 47.696 64.6467 47.9461C64.8968 48.1961 65.0373 48.5352 65.0373 48.8889C65.0373 49.2425 64.8968 49.5816 64.6467 49.8317C64.3967 50.0817 64.0575 50.2222 63.7039 50.2222C63.3503 50.2222 63.0112 50.0817 62.7611 49.8317C62.5111 49.5816 62.3706 49.2425 62.3706 48.8889C62.3706 48.5352 62.5111 48.1961 62.7611 47.9461C63.0112 47.696 63.3503 47.5555 63.7039 47.5555ZM69.6298 47.5555C69.9835 47.5555 70.3226 47.696 70.5727 47.9461C70.8227 48.1961 70.9632 48.5352 70.9632 48.8889C70.9632 49.2425 70.8227 49.5816 70.5727 49.8317C70.3226 50.0817 69.9835 50.2222 69.6298 50.2222C69.2762 50.2222 68.9371 50.0817 68.687 49.8317C68.437 49.5816 68.2965 49.2425 68.2965 48.8889C68.2965 48.5352 68.437 48.1961 68.687 47.9461C68.9371 47.696 69.2762 47.5555 69.6298 47.5555ZM72.5928 47.5555C72.9464 47.5555 73.2856 47.696 73.5356 47.9461C73.7857 48.1961 73.9261 48.5352 73.9261 48.8889C73.9261 49.2425 73.7857 49.5816 73.5356 49.8317C73.2856 50.0817 72.9464 50.2222 72.5928 50.2222C72.2392 50.2222 71.9001 50.0817 71.65 49.8317C71.4 49.5816 71.2595 49.2425 71.2595 48.8889C71.2595 48.5352 71.4 48.1961 71.65 47.9461C71.9001 47.696 72.2392 47.5555 72.5928 47.5555ZM4.44466 50.5185C4.79828 50.5185 5.13742 50.659 5.38747 50.909C5.63752 51.1591 5.77799 51.4982 5.77799 51.8518C5.77799 52.0269 5.74351 52.2003 5.6765 52.3621C5.60949 52.5238 5.51128 52.6708 5.38747 52.7946C5.26366 52.9184 5.11667 53.0167 4.95491 53.0837C4.79314 53.1507 4.61976 53.1852 4.44466 53.1852C4.09104 53.1852 3.7519 53.0447 3.50185 52.7946C3.2518 52.5446 3.11133 52.2054 3.11133 51.8518C3.11133 51.4982 3.2518 51.1591 3.50185 50.909C3.7519 50.659 4.09104 50.5185 4.44466 50.5185ZM7.40762 50.5185C7.76125 50.5185 8.10039 50.659 8.35043 50.909C8.60048 51.1591 8.74096 51.4982 8.74096 51.8518C8.74096 52.2054 8.60048 52.5446 8.35043 52.7946C8.10039 53.0447 7.76125 53.1852 7.40762 53.1852C7.054 53.1852 6.71486 53.0447 6.46482 52.7946C6.21477 52.5446 6.07429 52.2054 6.07429 51.8518C6.07429 51.4982 6.21477 51.1591 6.46482 50.909C6.71486 50.659 7.054 50.5185 7.40762 50.5185ZM10.3706 50.5185C10.7242 50.5185 11.0633 50.659 11.3134 50.909C11.5634 51.1591 11.7039 51.4982 11.7039 51.8518C11.7039 52.2054 11.5634 52.5446 11.3134 52.7946C11.0633 53.0447 10.7242 53.1852 10.3706 53.1852C10.017 53.1852 9.67783 53.0447 9.42778 52.7946C9.17773 52.5446 9.03725 52.2054 9.03725 51.8518C9.03725 51.4982 9.17773 51.1591 9.42778 50.909C9.67783 50.659 10.017 50.5185 10.3706 50.5185ZM16.2965 50.5185C16.6501 50.5185 16.9893 50.659 17.2393 50.909C17.4894 51.1591 17.6298 51.4982 17.6298 51.8518C17.6298 52.2054 17.4894 52.5446 17.2393 52.7946C16.9893 53.0447 16.6501 53.1852 16.2965 53.1852C15.9429 53.1852 15.6038 53.0447 15.3537 52.7946C15.1037 52.5446 14.9632 52.2054 14.9632 51.8518C14.9632 51.4982 15.1037 51.1591 15.3537 50.909C15.6038 50.659 15.9429 50.5185 16.2965 50.5185ZM19.2595 50.5185C19.6131 50.5185 19.9522 50.659 20.2023 50.909C20.4523 51.1591 20.5928 51.4982 20.5928 51.8518C20.5928 52.2054 20.4523 52.5446 20.2023 52.7946C19.9522 53.0447 19.6131 53.1852 19.2595 53.1852C18.9059 53.1852 18.5667 53.0447 18.3167 52.7946C18.0666 52.5446 17.9261 52.2054 17.9261 51.8518C17.9261 51.4982 18.0666 51.1591 18.3167 50.909C18.5667 50.659 18.9059 50.5185 19.2595 50.5185ZM22.2224 50.5185C22.5761 50.5185 22.9152 50.659 23.1652 50.909C23.4153 51.1591 23.5558 51.4982 23.5558 51.8518C23.5558 52.2054 23.4153 52.5446 23.1652 52.7946C22.9152 53.0447 22.5761 53.1852 22.2224 53.1852C21.8688 53.1852 21.5297 53.0447 21.2796 52.7946C21.0296 52.5446 20.8891 52.2054 20.8891 51.8518C20.8891 51.4982 21.0296 51.1591 21.2796 50.909C21.5297 50.659 21.8688 50.5185 22.2224 50.5185ZM28.1484 50.5185C28.502 50.5185 28.8411 50.659 29.0912 50.909C29.3412 51.1591 29.4817 51.4982 29.4817 51.8518C29.4817 52.2054 29.3412 52.5446 29.0912 52.7946C28.8411 53.0447 28.502 53.1852 28.1484 53.1852C27.7947 53.1852 27.4556 53.0447 27.2056 52.7946C26.9555 52.5446 26.815 52.2054 26.815 51.8518C26.815 51.4982 26.9555 51.1591 27.2056 50.909C27.4556 50.659 27.7947 50.5185 28.1484 50.5185ZM37.0373 50.5185C37.3909 50.5185 37.73 50.659 37.9801 50.909C38.2301 51.1591 38.3706 51.4982 38.3706 51.8518C38.3706 52.2054 38.2301 52.5446 37.9801 52.7946C37.73 53.0447 37.3909 53.1852 37.0373 53.1852C36.6836 53.1852 36.3445 53.0447 36.0944 52.7946C35.8444 52.5446 35.7039 52.2054 35.7039 51.8518C35.7039 51.4982 35.8444 51.1591 36.0944 50.909C36.3445 50.659 36.6836 50.5185 37.0373 50.5185ZM40.0002 50.5185C40.3538 50.5185 40.693 50.659 40.943 50.909C41.1931 51.1591 41.3335 51.4982 41.3335 51.8518C41.3335 52.2054 41.1931 52.5446 40.943 52.7946C40.693 53.0447 40.3538 53.1852 40.0002 53.1852C39.6466 53.1852 39.3075 53.0447 39.0574 52.7946C38.8074 52.5446 38.6669 52.2054 38.6669 51.8518C38.6669 51.4982 38.8074 51.1591 39.0574 50.909C39.3075 50.659 39.6466 50.5185 40.0002 50.5185ZM48.8891 50.5185C49.2427 50.5185 49.5819 50.659 49.8319 50.909C50.082 51.1591 50.2224 51.4982 50.2224 51.8518C50.2224 52.2054 50.082 52.5446 49.8319 52.7946C49.5819 53.0447 49.2427 53.1852 48.8891 53.1852C48.5355 53.1852 48.1963 53.0447 47.9463 52.7946C47.6962 52.5446 47.5558 52.2054 47.5558 51.8518C47.5558 51.4982 47.6962 51.1591 47.9463 50.909C48.1963 50.659 48.5355 50.5185 48.8891 50.5185ZM51.8521 50.5185C52.2057 50.5185 52.5448 50.659 52.7949 50.909C53.0449 51.1591 53.1854 51.4982 53.1854 51.8518C53.1854 52.2054 53.0449 52.5446 52.7949 52.7946C52.5448 53.0447 52.2057 53.1852 51.8521 53.1852C51.4984 53.1852 51.1593 53.0447 50.9093 52.7946C50.6592 52.5446 50.5187 52.2054 50.5187 51.8518C50.5187 51.4982 50.6592 51.1591 50.9093 50.909C51.1593 50.659 51.4984 50.5185 51.8521 50.5185ZM54.815 50.5185C55.1687 50.5185 55.5078 50.659 55.7578 50.909C56.0079 51.1591 56.1484 51.4982 56.1484 51.8518C56.1484 52.2054 56.0079 52.5446 55.7578 52.7946C55.5078 53.0447 55.1687 53.1852 54.815 53.1852C54.4614 53.1852 54.1223 53.0447 53.8722 52.7946C53.6222 52.5446 53.4817 52.2054 53.4817 51.8518C53.4817 51.4982 53.6222 51.1591 53.8722 50.909C54.1223 50.659 54.4614 50.5185 54.815 50.5185ZM57.778 50.5185C58.1316 50.5185 58.4708 50.659 58.7208 50.909C58.9709 51.1591 59.1113 51.4982 59.1113 51.8518C59.1113 52.2054 58.9709 52.5446 58.7208 52.7946C58.4708 53.0447 58.1316 53.1852 57.778 53.1852C57.4244 53.1852 57.0852 53.0447 56.8352 52.7946C56.5851 52.5446 56.4447 52.2054 56.4447 51.8518C56.4447 51.4982 56.5851 51.1591 56.8352 50.909C57.0852 50.659 57.4244 50.5185 57.778 50.5185ZM60.741 50.5185C61.0946 50.5185 61.4337 50.659 61.6838 50.909C61.9338 51.1591 62.0743 51.4982 62.0743 51.8518C62.0743 52.2054 61.9338 52.5446 61.6838 52.7946C61.4337 53.0447 61.0946 53.1852 60.741 53.1852C60.3873 53.1852 60.0482 53.0447 59.7982 52.7946C59.5481 52.5446 59.4076 52.2054 59.4076 51.8518C59.4076 51.4982 59.5481 51.1591 59.7982 50.909C60.0482 50.659 60.3873 50.5185 60.741 50.5185ZM63.7039 50.5185C64.0575 50.5185 64.3967 50.659 64.6467 50.909C64.8968 51.1591 65.0373 51.4982 65.0373 51.8518C65.0373 52.2054 64.8968 52.5446 64.6467 52.7946C64.3967 53.0447 64.0575 53.1852 63.7039 53.1852C63.3503 53.1852 63.0112 53.0447 62.7611 52.7946C62.5111 52.5446 62.3706 52.2054 62.3706 51.8518C62.3706 51.4982 62.5111 51.1591 62.7611 50.909C63.0112 50.659 63.3503 50.5185 63.7039 50.5185ZM66.6669 50.5185C67.0205 50.5185 67.3596 50.659 67.6097 50.909C67.8597 51.1591 68.0002 51.4982 68.0002 51.8518C68.0002 52.2054 67.8597 52.5446 67.6097 52.7946C67.3596 53.0447 67.0205 53.1852 66.6669 53.1852C66.3133 53.1852 65.9741 53.0447 65.7241 52.7946C65.474 52.5446 65.3335 52.2054 65.3335 51.8518C65.3335 51.4982 65.474 51.1591 65.7241 50.909C65.9741 50.659 66.3133 50.5185 66.6669 50.5185ZM69.6298 50.5185C69.9835 50.5185 70.3226 50.659 70.5727 50.909C70.8227 51.1591 70.9632 51.4982 70.9632 51.8518C70.9632 52.2054 70.8227 52.5446 70.5727 52.7946C70.3226 53.0447 69.9835 53.1852 69.6298 53.1852C69.2762 53.1852 68.9371 53.0447 68.687 52.7946C68.437 52.5446 68.2965 52.2054 68.2965 51.8518C68.2965 51.4982 68.437 51.1591 68.687 50.909C68.9371 50.659 69.2762 50.5185 69.6298 50.5185ZM28.1484 53.4815C28.502 53.4815 28.8411 53.6219 29.0912 53.872C29.3412 54.122 29.4817 54.4612 29.4817 54.8148C29.4817 55.1684 29.3412 55.5075 29.0912 55.7576C28.8411 56.0076 28.502 56.1481 28.1484 56.1481C27.7947 56.1481 27.4556 56.0076 27.2056 55.7576C26.9555 55.5075 26.815 55.1684 26.815 54.8148C26.815 54.4612 26.9555 54.122 27.2056 53.872C27.4556 53.6219 27.7947 53.4815 28.1484 53.4815ZM37.0373 53.4815C37.3909 53.4815 37.73 53.6219 37.9801 53.872C38.2301 54.122 38.3706 54.4612 38.3706 54.8148C38.3706 55.1684 38.2301 55.5075 37.9801 55.7576C37.73 56.0076 37.3909 56.1481 37.0373 56.1481C36.6836 56.1481 36.3445 56.0076 36.0944 55.7576C35.8444 55.5075 35.7039 55.1684 35.7039 54.8148C35.7039 54.4612 35.8444 54.122 36.0944 53.872C36.3445 53.6219 36.6836 53.4815 37.0373 53.4815ZM40.0002 53.4815C40.3538 53.4815 40.693 53.6219 40.943 53.872C41.1931 54.122 41.3335 54.4612 41.3335 54.8148C41.3335 55.1684 41.1931 55.5075 40.943 55.7576C40.693 56.0076 40.3538 56.1481 40.0002 56.1481C39.6466 56.1481 39.3075 56.0076 39.0574 55.7576C38.8074 55.5075 38.6669 55.1684 38.6669 54.8148C38.6669 54.4612 38.8074 54.122 39.0574 53.872C39.3075 53.6219 39.6466 53.4815 40.0002 53.4815ZM45.9261 53.4815C46.2798 53.4815 46.6189 53.6219 46.869 53.872C47.119 54.122 47.2595 54.4612 47.2595 54.8148C47.2595 55.1684 47.119 55.5075 46.869 55.7576C46.6189 56.0076 46.2798 56.1481 45.9261 56.1481C45.5725 56.1481 45.2334 56.0076 44.9833 55.7576C44.7333 55.5075 44.5928 55.1684 44.5928 54.8148C44.5928 54.4612 44.7333 54.122 44.9833 53.872C45.2334 53.6219 45.5725 53.4815 45.9261 53.4815ZM51.8521 53.4815C52.2057 53.4815 52.5448 53.6219 52.7949 53.872C53.0449 54.122 53.1854 54.4612 53.1854 54.8148C53.1854 55.1684 53.0449 55.5075 52.7949 55.7576C52.5448 56.0076 52.2057 56.1481 51.8521 56.1481C51.4984 56.1481 51.1593 56.0076 50.9093 55.7576C50.6592 55.5075 50.5187 55.1684 50.5187 54.8148C50.5187 54.4612 50.6592 54.122 50.9093 53.872C51.1593 53.6219 51.4984 53.4815 51.8521 53.4815ZM63.7039 53.4815C64.0575 53.4815 64.3967 53.6219 64.6467 53.872C64.8968 54.122 65.0373 54.4612 65.0373 54.8148C65.0373 55.1684 64.8968 55.5075 64.6467 55.7576C64.3967 56.0076 64.0575 56.1481 63.7039 56.1481C63.3503 56.1481 63.0112 56.0076 62.7611 55.7576C62.5111 55.5075 62.3706 55.1684 62.3706 54.8148C62.3706 54.4612 62.5111 54.122 62.7611 53.872C63.0112 53.6219 63.3503 53.4815 63.7039 53.4815ZM31.1113 56.4444C31.4649 56.4444 31.8041 56.5849 32.0541 56.8349C32.3042 57.085 32.4447 57.4241 32.4447 57.7778C32.4447 58.1314 32.3042 58.4705 32.0541 58.7206C31.8041 58.9706 31.4649 59.1111 31.1113 59.1111C30.7577 59.1111 30.4186 58.9706 30.1685 58.7206C29.9185 58.4705 29.778 58.1314 29.778 57.7778C29.778 57.4241 29.9185 57.085 30.1685 56.8349C30.4186 56.5849 30.7577 56.4444 31.1113 56.4444ZM37.0373 56.4444C37.3909 56.4444 37.73 56.5849 37.9801 56.8349C38.2301 57.085 38.3706 57.4241 38.3706 57.7778C38.3706 58.1314 38.2301 58.4705 37.9801 58.7206C37.73 58.9706 37.3909 59.1111 37.0373 59.1111C36.6836 59.1111 36.3445 58.9706 36.0944 58.7206C35.8444 58.4705 35.7039 58.1314 35.7039 57.7778C35.7039 57.4241 35.8444 57.085 36.0944 56.8349C36.3445 56.5849 36.6836 56.4444 37.0373 56.4444ZM40.0002 56.4444C40.3538 56.4444 40.693 56.5849 40.943 56.8349C41.1931 57.085 41.3335 57.4241 41.3335 57.7778C41.3335 58.1314 41.1931 58.4705 40.943 58.7206C40.693 58.9706 40.3538 59.1111 40.0002 59.1111C39.6466 59.1111 39.3075 58.9706 39.0574 58.7206C38.8074 58.4705 38.6669 58.1314 38.6669 57.7778C38.6669 57.4241 38.8074 57.085 39.0574 56.8349C39.3075 56.5849 39.6466 56.4444 40.0002 56.4444ZM45.9261 56.4444C46.2798 56.4444 46.6189 56.5849 46.869 56.8349C47.119 57.085 47.2595 57.4241 47.2595 57.7778C47.2595 58.1314 47.119 58.4705 46.869 58.7206C46.6189 58.9706 46.2798 59.1111 45.9261 59.1111C45.5725 59.1111 45.2334 58.9706 44.9833 58.7206C44.7333 58.4705 44.5928 58.1314 44.5928 57.7778C44.5928 57.4241 44.7333 57.085 44.9833 56.8349C45.2334 56.5849 45.5725 56.4444 45.9261 56.4444ZM51.8521 56.4444C52.2057 56.4444 52.5448 56.5849 52.7949 56.8349C53.0449 57.085 53.1854 57.4241 53.1854 57.7778C53.1854 58.1314 53.0449 58.4705 52.7949 58.7206C52.5448 58.9706 52.2057 59.1111 51.8521 59.1111C51.4984 59.1111 51.1593 58.9706 50.9093 58.7206C50.6592 58.4705 50.5187 58.1314 50.5187 57.7778C50.5187 57.4241 50.6592 57.085 50.9093 56.8349C51.1593 56.5849 51.4984 56.4444 51.8521 56.4444ZM57.778 56.4444C58.1316 56.4444 58.4708 56.5849 58.7208 56.8349C58.9709 57.085 59.1113 57.4241 59.1113 57.7778C59.1113 58.1314 58.9709 58.4705 58.7208 58.7206C58.4708 58.9706 58.1316 59.1111 57.778 59.1111C57.4244 59.1111 57.0852 58.9706 56.8352 58.7206C56.5851 58.4705 56.4447 58.1314 56.4447 57.7778C56.4447 57.4241 56.5851 57.085 56.8352 56.8349C57.0852 56.5849 57.4244 56.4444 57.778 56.4444ZM63.7039 56.4444C64.0575 56.4444 64.3967 56.5849 64.6467 56.8349C64.8968 57.085 65.0373 57.4241 65.0373 57.7778C65.0373 58.1314 64.8968 58.4705 64.6467 58.7206C64.3967 58.9706 64.0575 59.1111 63.7039 59.1111C63.3503 59.1111 63.0112 58.9706 62.7611 58.7206C62.5111 58.4705 62.3706 58.1314 62.3706 57.7778C62.3706 57.4241 62.5111 57.085 62.7611 56.8349C63.0112 56.5849 63.3503 56.4444 63.7039 56.4444ZM28.1484 59.4074C28.502 59.4074 28.8411 59.5479 29.0912 59.7979C29.3412 60.048 29.4817 60.3871 29.4817 60.7407C29.4817 61.0943 29.3412 61.4335 29.0912 61.6835C28.8411 61.9336 28.502 62.074 28.1484 62.074C27.7947 62.074 27.4556 61.9336 27.2056 61.6835C26.9555 61.4335 26.815 61.0943 26.815 60.7407C26.815 60.3871 26.9555 60.048 27.2056 59.7979C27.4556 59.5479 27.7947 59.4074 28.1484 59.4074ZM31.1113 59.4074C31.4649 59.4074 31.8041 59.5479 32.0541 59.7979C32.3042 60.048 32.4447 60.3871 32.4447 60.7407C32.4447 61.0943 32.3042 61.4335 32.0541 61.6835C31.8041 61.9336 31.4649 62.074 31.1113 62.074C30.7577 62.074 30.4186 61.9336 30.1685 61.6835C29.9185 61.4335 29.778 61.0943 29.778 60.7407C29.778 60.3871 29.9185 60.048 30.1685 59.7979C30.4186 59.5479 30.7577 59.4074 31.1113 59.4074ZM51.8521 59.4074C52.2057 59.4074 52.5448 59.5479 52.7949 59.7979C53.0449 60.048 53.1854 60.3871 53.1854 60.7407C53.1854 61.0943 53.0449 61.4335 52.7949 61.6835C52.5448 61.9336 52.2057 62.074 51.8521 62.074C51.4984 62.074 51.1593 61.9336 50.9093 61.6835C50.6592 61.4335 50.5187 61.0943 50.5187 60.7407C50.5187 60.3871 50.6592 60.048 50.9093 59.7979C51.1593 59.5479 51.4984 59.4074 51.8521 59.4074ZM63.7039 59.4074C64.0575 59.4074 64.3967 59.5479 64.6467 59.7979C64.8968 60.048 65.0373 60.3871 65.0373 60.7407C65.0373 61.0943 64.8968 61.4335 64.6467 61.6835C64.3967 61.9336 64.0575 62.074 63.7039 62.074C63.3503 62.074 63.0112 61.9336 62.7611 61.6835C62.5111 61.4335 62.3706 61.0943 62.3706 60.7407C62.3706 60.3871 62.5111 60.048 62.7611 59.7979C63.0112 59.5479 63.3503 59.4074 63.7039 59.4074ZM66.6669 59.4074C67.0205 59.4074 67.3596 59.5479 67.6097 59.7979C67.8597 60.048 68.0002 60.3871 68.0002 60.7407C68.0002 61.0943 67.8597 61.4335 67.6097 61.6835C67.3596 61.9336 67.0205 62.074 66.6669 62.074C66.3133 62.074 65.9741 61.9336 65.7241 61.6835C65.474 61.4335 65.3335 61.0943 65.3335 60.7407C65.3335 60.3871 65.474 60.048 65.7241 59.7979C65.9741 59.5479 66.3133 59.4074 66.6669 59.4074ZM69.6298 59.4074C69.9835 59.4074 70.3226 59.5479 70.5727 59.7979C70.8227 60.048 70.9632 60.3871 70.9632 60.7407C70.9632 61.0943 70.8227 61.4335 70.5727 61.6835C70.3226 61.9336 69.9835 62.074 69.6298 62.074C69.2762 62.074 68.9371 61.9336 68.687 61.6835C68.437 61.4335 68.2965 61.0943 68.2965 60.7407C68.2965 60.3871 68.437 60.048 68.687 59.7979C68.9371 59.5479 69.2762 59.4074 69.6298 59.4074ZM72.5928 59.4074C72.9464 59.4074 73.2856 59.5479 73.5356 59.7979C73.7857 60.048 73.9261 60.3871 73.9261 60.7407C73.9261 61.0943 73.7857 61.4335 73.5356 61.6835C73.2856 61.9336 72.9464 62.074 72.5928 62.074C72.2392 62.074 71.9001 61.9336 71.65 61.6835C71.4 61.4335 71.2595 61.0943 71.2595 60.7407C71.2595 60.3871 71.4 60.048 71.65 59.7979C71.9001 59.5479 72.2392 59.4074 72.5928 59.4074ZM75.5558 59.4074C75.9094 59.4074 76.2485 59.5479 76.4986 59.7979C76.7486 60.048 76.8891 60.3871 76.8891 60.7407C76.8891 61.0943 76.7486 61.4335 76.4986 61.6835C76.2485 61.9336 75.9094 62.074 75.5558 62.074C75.2022 62.074 74.863 61.9336 74.613 61.6835C74.3629 61.4335 74.2224 61.0943 74.2224 60.7407C74.2224 60.3871 74.3629 60.048 74.613 59.7979C74.863 59.5479 75.2022 59.4074 75.5558 59.4074ZM28.1484 62.3703C28.502 62.3703 28.8411 62.5108 29.0912 62.7609C29.3412 63.0109 29.4817 63.3501 29.4817 63.7037C29.4817 64.0573 29.3412 64.3964 29.0912 64.6465C28.8411 64.8965 28.502 65.037 28.1484 65.037C27.7947 65.037 27.4556 64.8965 27.2056 64.6465C26.9555 64.3964 26.815 64.0573 26.815 63.7037C26.815 63.3501 26.9555 63.0109 27.2056 62.7609C27.4556 62.5108 27.7947 62.3703 28.1484 62.3703ZM31.1113 62.3703C31.4649 62.3703 31.8041 62.5108 32.0541 62.7609C32.3042 63.0109 32.4447 63.3501 32.4447 63.7037C32.4447 64.0573 32.3042 64.3964 32.0541 64.6465C31.8041 64.8965 31.4649 65.037 31.1113 65.037C30.7577 65.037 30.4186 64.8965 30.1685 64.6465C29.9185 64.3964 29.778 64.0573 29.778 63.7037C29.778 63.3501 29.9185 63.0109 30.1685 62.7609C30.4186 62.5108 30.7577 62.3703 31.1113 62.3703ZM37.0373 62.3703C37.3909 62.3703 37.73 62.5108 37.9801 62.7609C38.2301 63.0109 38.3706 63.3501 38.3706 63.7037C38.3706 64.0573 38.2301 64.3964 37.9801 64.6465C37.73 64.8965 37.3909 65.037 37.0373 65.037C36.6836 65.037 36.3445 64.8965 36.0944 64.6465C35.8444 64.3964 35.7039 64.0573 35.7039 63.7037C35.7039 63.3501 35.8444 63.0109 36.0944 62.7609C36.3445 62.5108 36.6836 62.3703 37.0373 62.3703ZM40.0002 62.3703C40.3538 62.3703 40.693 62.5108 40.943 62.7609C41.1931 63.0109 41.3335 63.3501 41.3335 63.7037C41.3335 64.0573 41.1931 64.3964 40.943 64.6465C40.693 64.8965 40.3538 65.037 40.0002 65.037C39.6466 65.037 39.3075 64.8965 39.0574 64.6465C38.8074 64.3964 38.6669 64.0573 38.6669 63.7037C38.6669 63.3501 38.8074 63.0109 39.0574 62.7609C39.3075 62.5108 39.6466 62.3703 40.0002 62.3703ZM51.8521 62.3703C52.2057 62.3703 52.5448 62.5108 52.7949 62.7609C53.0449 63.0109 53.1854 63.3501 53.1854 63.7037C53.1854 64.0573 53.0449 64.3964 52.7949 64.6465C52.5448 64.8965 52.2057 65.037 51.8521 65.037C51.4984 65.037 51.1593 64.8965 50.9093 64.6465C50.6592 64.3964 50.5187 64.0573 50.5187 63.7037C50.5187 63.3501 50.6592 63.0109 50.9093 62.7609C51.1593 62.5108 51.4984 62.3703 51.8521 62.3703ZM54.815 62.3703C55.1687 62.3703 55.5078 62.5108 55.7578 62.7609C56.0079 63.0109 56.1484 63.3501 56.1484 63.7037C56.1484 64.0573 56.0079 64.3964 55.7578 64.6465C55.5078 64.8965 55.1687 65.037 54.815 65.037C54.4614 65.037 54.1223 64.8965 53.8722 64.6465C53.6222 64.3964 53.4817 64.0573 53.4817 63.7037C53.4817 63.3501 53.6222 63.0109 53.8722 62.7609C54.1223 62.5108 54.4614 62.3703 54.815 62.3703ZM57.778 62.3703C58.1316 62.3703 58.4708 62.5108 58.7208 62.7609C58.9709 63.0109 59.1113 63.3501 59.1113 63.7037C59.1113 64.0573 58.9709 64.3964 58.7208 64.6465C58.4708 64.8965 58.1316 65.037 57.778 65.037C57.4244 65.037 57.0852 64.8965 56.8352 64.6465C56.5851 64.3964 56.4447 64.0573 56.4447 63.7037C56.4447 63.3501 56.5851 63.0109 56.8352 62.7609C57.0852 62.5108 57.4244 62.3703 57.778 62.3703ZM60.741 62.3703C61.0946 62.3703 61.4337 62.5108 61.6838 62.7609C61.9338 63.0109 62.0743 63.3501 62.0743 63.7037C62.0743 64.0573 61.9338 64.3964 61.6838 64.6465C61.4337 64.8965 61.0946 65.037 60.741 65.037C60.3873 65.037 60.0482 64.8965 59.7982 64.6465C59.5481 64.3964 59.4076 64.0573 59.4076 63.7037C59.4076 63.3501 59.5481 63.0109 59.7982 62.7609C60.0482 62.5108 60.3873 62.3703 60.741 62.3703ZM63.7039 62.3703C64.0575 62.3703 64.3967 62.5108 64.6467 62.7609C64.8968 63.0109 65.0373 63.3501 65.0373 63.7037C65.0373 64.0573 64.8968 64.3964 64.6467 64.6465C64.3967 64.8965 64.0575 65.037 63.7039 65.037C63.3503 65.037 63.0112 64.8965 62.7611 64.6465C62.5111 64.3964 62.3706 64.0573 62.3706 63.7037C62.3706 63.3501 62.5111 63.0109 62.7611 62.7609C63.0112 62.5108 63.3503 62.3703 63.7039 62.3703ZM66.6669 62.3703C67.0205 62.3703 67.3596 62.5108 67.6097 62.7609C67.8597 63.0109 68.0002 63.3501 68.0002 63.7037C68.0002 64.0573 67.8597 64.3964 67.6097 64.6465C67.3596 64.8965 67.0205 65.037 66.6669 65.037C66.3133 65.037 65.9741 64.8965 65.7241 64.6465C65.474 64.3964 65.3335 64.0573 65.3335 63.7037C65.3335 63.3501 65.474 63.0109 65.7241 62.7609C65.9741 62.5108 66.3133 62.3703 66.6669 62.3703ZM69.6298 62.3703C69.9835 62.3703 70.3226 62.5108 70.5727 62.7609C70.8227 63.0109 70.9632 63.3501 70.9632 63.7037C70.9632 64.0573 70.8227 64.3964 70.5727 64.6465C70.3226 64.8965 69.9835 65.037 69.6298 65.037C69.2762 65.037 68.9371 64.8965 68.687 64.6465C68.437 64.3964 68.2965 64.0573 68.2965 63.7037C68.2965 63.3501 68.437 63.0109 68.687 62.7609C68.9371 62.5108 69.2762 62.3703 69.6298 62.3703ZM72.5928 62.3703C72.9464 62.3703 73.2856 62.5108 73.5356 62.7609C73.7857 63.0109 73.9261 63.3501 73.9261 63.7037C73.9261 64.0573 73.7857 64.3964 73.5356 64.6465C73.2856 64.8965 72.9464 65.037 72.5928 65.037C72.2392 65.037 71.9001 64.8965 71.65 64.6465C71.4 64.3964 71.2595 64.0573 71.2595 63.7037C71.2595 63.3501 71.4 63.0109 71.65 62.7609C71.9001 62.5108 72.2392 62.3703 72.5928 62.3703ZM34.0743 65.3333C34.4279 65.3333 34.7671 65.4738 35.0171 65.7238C35.2671 65.9739 35.4076 66.313 35.4076 66.6666C35.4076 67.0203 35.2671 67.3594 35.0171 67.6094C34.7671 67.8595 34.4279 68 34.0743 68C33.7207 68 33.3815 67.8595 33.1315 67.6094C32.8814 67.3594 32.741 67.0203 32.741 66.6666C32.741 66.313 32.8814 65.9739 33.1315 65.7238C33.3815 65.4738 33.7207 65.3333 34.0743 65.3333ZM37.0373 65.3333C37.3909 65.3333 37.73 65.4738 37.9801 65.7238C38.2301 65.9739 38.3706 66.313 38.3706 66.6666C38.3706 67.0203 38.2301 67.3594 37.9801 67.6094C37.73 67.8595 37.3909 68 37.0373 68C36.6836 68 36.3445 67.8595 36.0944 67.6094C35.8444 67.3594 35.7039 67.0203 35.7039 66.6666C35.7039 66.313 35.8444 65.9739 36.0944 65.7238C36.3445 65.4738 36.6836 65.3333 37.0373 65.3333ZM45.9261 65.3333C46.2798 65.3333 46.6189 65.4738 46.869 65.7238C47.119 65.9739 47.2595 66.313 47.2595 66.6666C47.2595 67.0203 47.119 67.3594 46.869 67.6094C46.6189 67.8595 46.2798 68 45.9261 68C45.5725 68 45.2334 67.8595 44.9833 67.6094C44.7333 67.3594 44.5928 67.0203 44.5928 66.6666C44.5928 66.313 44.7333 65.9739 44.9833 65.7238C45.2334 65.4738 45.5725 65.3333 45.9261 65.3333ZM48.8891 65.3333C49.2427 65.3333 49.5819 65.4738 49.8319 65.7238C50.082 65.9739 50.2224 66.313 50.2224 66.6666C50.2224 67.0203 50.082 67.3594 49.8319 67.6094C49.5819 67.8595 49.2427 68 48.8891 68C48.5355 68 48.1963 67.8595 47.9463 67.6094C47.6962 67.3594 47.5558 67.0203 47.5558 66.6666C47.5558 66.313 47.6962 65.9739 47.9463 65.7238C48.1963 65.4738 48.5355 65.3333 48.8891 65.3333ZM54.815 65.3333C55.1687 65.3333 55.5078 65.4738 55.7578 65.7238C56.0079 65.9739 56.1484 66.313 56.1484 66.6666C56.1484 67.0203 56.0079 67.3594 55.7578 67.6094C55.5078 67.8595 55.1687 68 54.815 68C54.4614 68 54.1223 67.8595 53.8722 67.6094C53.6222 67.3594 53.4817 67.0203 53.4817 66.6666C53.4817 66.313 53.6222 65.9739 53.8722 65.7238C54.1223 65.4738 54.4614 65.3333 54.815 65.3333ZM57.778 65.3333C58.1316 65.3333 58.4708 65.4738 58.7208 65.7238C58.9709 65.9739 59.1113 66.313 59.1113 66.6666C59.1113 67.0203 58.9709 67.3594 58.7208 67.6094C58.4708 67.8595 58.1316 68 57.778 68C57.4244 68 57.0852 67.8595 56.8352 67.6094C56.5851 67.3594 56.4447 67.0203 56.4447 66.6666C56.4447 66.313 56.5851 65.9739 56.8352 65.7238C57.0852 65.4738 57.4244 65.3333 57.778 65.3333ZM60.741 65.3333C61.0946 65.3333 61.4337 65.4738 61.6838 65.7238C61.9338 65.9739 62.0743 66.313 62.0743 66.6666C62.0743 67.0203 61.9338 67.3594 61.6838 67.6094C61.4337 67.8595 61.0946 68 60.741 68C60.3873 68 60.0482 67.8595 59.7982 67.6094C59.5481 67.3594 59.4076 67.0203 59.4076 66.6666C59.4076 66.313 59.5481 65.9739 59.7982 65.7238C60.0482 65.4738 60.3873 65.3333 60.741 65.3333ZM69.6298 65.3333C69.9835 65.3333 70.3226 65.4738 70.5727 65.7238C70.8227 65.9739 70.9632 66.313 70.9632 66.6666C70.9632 67.0203 70.8227 67.3594 70.5727 67.6094C70.3226 67.8595 69.9835 68 69.6298 68C69.2762 68 68.9371 67.8595 68.687 67.6094C68.437 67.3594 68.2965 67.0203 68.2965 66.6666C68.2965 66.313 68.437 65.9739 68.687 65.7238C68.9371 65.4738 69.2762 65.3333 69.6298 65.3333ZM72.5928 65.3333C72.9464 65.3333 73.2856 65.4738 73.5356 65.7238C73.7857 65.9739 73.9261 66.313 73.9261 66.6666C73.9261 67.0203 73.7857 67.3594 73.5356 67.6094C73.2856 67.8595 72.9464 68 72.5928 68C72.2392 68 71.9001 67.8595 71.65 67.6094C71.4 67.3594 71.2595 67.0203 71.2595 66.6666C71.2595 66.313 71.4 65.9739 71.65 65.7238C71.9001 65.4738 72.2392 65.3333 72.5928 65.3333ZM75.5558 65.3333C75.9094 65.3333 76.2485 65.4738 76.4986 65.7238C76.7486 65.9739 76.8891 66.313 76.8891 66.6666C76.8891 67.0203 76.7486 67.3594 76.4986 67.6094C76.2485 67.8595 75.9094 68 75.5558 68C75.2022 68 74.863 67.8595 74.613 67.6094C74.3629 67.3594 74.2224 67.0203 74.2224 66.6666C74.2224 66.313 74.3629 65.9739 74.613 65.7238C74.863 65.4738 75.2022 65.3333 75.5558 65.3333ZM31.1113 68.2963C31.4649 68.2963 31.8041 68.4367 32.0541 68.6868C32.3042 68.9368 32.4447 69.276 32.4447 69.6296C32.4447 69.9832 32.3042 70.3224 32.0541 70.5724C31.8041 70.8225 31.4649 70.9629 31.1113 70.9629C30.7577 70.9629 30.4186 70.8225 30.1685 70.5724C29.9185 70.3224 29.778 69.9832 29.778 69.6296C29.778 69.276 29.9185 68.9368 30.1685 68.6868C30.4186 68.4367 30.7577 68.2963 31.1113 68.2963ZM34.0743 68.2963C34.4279 68.2963 34.7671 68.4367 35.0171 68.6868C35.2671 68.9368 35.4076 69.276 35.4076 69.6296C35.4076 69.9832 35.2671 70.3224 35.0171 70.5724C34.7671 70.8225 34.4279 70.9629 34.0743 70.9629C33.7207 70.9629 33.3815 70.8225 33.1315 70.5724C32.8814 70.3224 32.741 69.9832 32.741 69.6296C32.741 69.276 32.8814 68.9368 33.1315 68.6868C33.3815 68.4367 33.7207 68.2963 34.0743 68.2963ZM37.0373 68.2963C37.3909 68.2963 37.73 68.4367 37.9801 68.6868C38.2301 68.9368 38.3706 69.276 38.3706 69.6296C38.3706 69.9832 38.2301 70.3224 37.9801 70.5724C37.73 70.8225 37.3909 70.9629 37.0373 70.9629C36.6836 70.9629 36.3445 70.8225 36.0944 70.5724C35.8444 70.3224 35.7039 69.9832 35.7039 69.6296C35.7039 69.276 35.8444 68.9368 36.0944 68.6868C36.3445 68.4367 36.6836 68.2963 37.0373 68.2963ZM48.8891 68.2963C49.2427 68.2963 49.5819 68.4367 49.8319 68.6868C50.082 68.9368 50.2224 69.276 50.2224 69.6296C50.2224 69.9832 50.082 70.3224 49.8319 70.5724C49.5819 70.8225 49.2427 70.9629 48.8891 70.9629C48.5355 70.9629 48.1963 70.8225 47.9463 70.5724C47.6962 70.3224 47.5558 69.9832 47.5558 69.6296C47.5558 69.276 47.6962 68.9368 47.9463 68.6868C48.1963 68.4367 48.5355 68.2963 48.8891 68.2963ZM54.815 68.2963C55.1687 68.2963 55.5078 68.4367 55.7578 68.6868C56.0079 68.9368 56.1484 69.276 56.1484 69.6296C56.1484 69.9832 56.0079 70.3224 55.7578 70.5724C55.5078 70.8225 55.1687 70.9629 54.815 70.9629C54.4614 70.9629 54.1223 70.8225 53.8722 70.5724C53.6222 70.3224 53.4817 69.9832 53.4817 69.6296C53.4817 69.276 53.6222 68.9368 53.8722 68.6868C54.1223 68.4367 54.4614 68.2963 54.815 68.2963ZM57.778 68.2963C58.1316 68.2963 58.4708 68.4367 58.7208 68.6868C58.9709 68.9368 59.1113 69.276 59.1113 69.6296C59.1113 69.9832 58.9709 70.3224 58.7208 70.5724C58.4708 70.8225 58.1316 70.9629 57.778 70.9629C57.4244 70.9629 57.0852 70.8225 56.8352 70.5724C56.5851 70.3224 56.4447 69.9832 56.4447 69.6296C56.4447 69.276 56.5851 68.9368 56.8352 68.6868C57.0852 68.4367 57.4244 68.2963 57.778 68.2963ZM66.6669 68.2963C67.0205 68.2963 67.3596 68.4367 67.6097 68.6868C67.8597 68.9368 68.0002 69.276 68.0002 69.6296C68.0002 69.9832 67.8597 70.3224 67.6097 70.5724C67.3596 70.8225 67.0205 70.9629 66.6669 70.9629C66.3133 70.9629 65.9741 70.8225 65.7241 70.5724C65.474 70.3224 65.3335 69.9832 65.3335 69.6296C65.3335 69.276 65.474 68.9368 65.7241 68.6868C65.9741 68.4367 66.3133 68.2963 66.6669 68.2963ZM72.5928 68.2963C72.9464 68.2963 73.2856 68.4367 73.5356 68.6868C73.7857 68.9368 73.9261 69.276 73.9261 69.6296C73.9261 69.9832 73.7857 70.3224 73.5356 70.5724C73.2856 70.8225 72.9464 70.9629 72.5928 70.9629C72.2392 70.9629 71.9001 70.8225 71.65 70.5724C71.4 70.3224 71.2595 69.9832 71.2595 69.6296C71.2595 69.276 71.4 68.9368 71.65 68.6868C71.9001 68.4367 72.2392 68.2963 72.5928 68.2963ZM28.1484 71.2592C28.502 71.2592 28.8411 71.3997 29.0912 71.6498C29.3412 71.8998 29.4817 72.2389 29.4817 72.5926C29.4817 72.9462 29.3412 73.2853 29.0912 73.5354C28.8411 73.7854 28.502 73.9259 28.1484 73.9259C27.7947 73.9259 27.4556 73.7854 27.2056 73.5354C26.9555 73.2853 26.815 72.9462 26.815 72.5926C26.815 72.2389 26.9555 71.8998 27.2056 71.6498C27.4556 71.3997 27.7947 71.2592 28.1484 71.2592ZM31.1113 71.2592C31.4649 71.2592 31.8041 71.3997 32.0541 71.6498C32.3042 71.8998 32.4447 72.2389 32.4447 72.5926C32.4447 72.9462 32.3042 73.2853 32.0541 73.5354C31.8041 73.7854 31.4649 73.9259 31.1113 73.9259C30.7577 73.9259 30.4186 73.7854 30.1685 73.5354C29.9185 73.2853 29.778 72.9462 29.778 72.5926C29.778 72.2389 29.9185 71.8998 30.1685 71.6498C30.4186 71.3997 30.7577 71.2592 31.1113 71.2592ZM40.0002 71.2592C40.3538 71.2592 40.693 71.3997 40.943 71.6498C41.1931 71.8998 41.3335 72.2389 41.3335 72.5926C41.3335 72.9462 41.1931 73.2853 40.943 73.5354C40.693 73.7854 40.3538 73.9259 40.0002 73.9259C39.6466 73.9259 39.3075 73.7854 39.0574 73.5354C38.8074 73.2853 38.6669 72.9462 38.6669 72.5926C38.6669 72.2389 38.8074 71.8998 39.0574 71.6498C39.3075 71.3997 39.6466 71.2592 40.0002 71.2592ZM45.9261 71.2592C46.2798 71.2592 46.6189 71.3997 46.869 71.6498C47.119 71.8998 47.2595 72.2389 47.2595 72.5926C47.2595 72.9462 47.119 73.2853 46.869 73.5354C46.6189 73.7854 46.2798 73.9259 45.9261 73.9259C45.5725 73.9259 45.2334 73.7854 44.9833 73.5354C44.7333 73.2853 44.5928 72.9462 44.5928 72.5926C44.5928 72.2389 44.7333 71.8998 44.9833 71.6498C45.2334 71.3997 45.5725 71.2592 45.9261 71.2592ZM48.8891 71.2592C49.2427 71.2592 49.5819 71.3997 49.8319 71.6498C50.082 71.8998 50.2224 72.2389 50.2224 72.5926C50.2224 72.9462 50.082 73.2853 49.8319 73.5354C49.5819 73.7854 49.2427 73.9259 48.8891 73.9259C48.5355 73.9259 48.1963 73.7854 47.9463 73.5354C47.6962 73.2853 47.5558 72.9462 47.5558 72.5926C47.5558 72.2389 47.6962 71.8998 47.9463 71.6498C48.1963 71.3997 48.5355 71.2592 48.8891 71.2592ZM57.778 71.2592C58.1316 71.2592 58.4708 71.3997 58.7208 71.6498C58.9709 71.8998 59.1113 72.2389 59.1113 72.5926C59.1113 72.9462 58.9709 73.2853 58.7208 73.5354C58.4708 73.7854 58.1316 73.9259 57.778 73.9259C57.4244 73.9259 57.0852 73.7854 56.8352 73.5354C56.5851 73.2853 56.4447 72.9462 56.4447 72.5926C56.4447 72.2389 56.5851 71.8998 56.8352 71.6498C57.0852 71.3997 57.4244 71.2592 57.778 71.2592ZM60.741 71.2592C61.0946 71.2592 61.4337 71.3997 61.6838 71.6498C61.9338 71.8998 62.0743 72.2389 62.0743 72.5926C62.0743 72.9462 61.9338 73.2853 61.6838 73.5354C61.4337 73.7854 61.0946 73.9259 60.741 73.9259C60.3873 73.9259 60.0482 73.7854 59.7982 73.5354C59.5481 73.2853 59.4076 72.9462 59.4076 72.5926C59.4076 72.2389 59.5481 71.8998 59.7982 71.6498C60.0482 71.3997 60.3873 71.2592 60.741 71.2592ZM63.7039 71.2592C64.0575 71.2592 64.3967 71.3997 64.6467 71.6498C64.8968 71.8998 65.0373 72.2389 65.0373 72.5926C65.0373 72.9462 64.8968 73.2853 64.6467 73.5354C64.3967 73.7854 64.0575 73.9259 63.7039 73.9259C63.3503 73.9259 63.0112 73.7854 62.7611 73.5354C62.5111 73.2853 62.3706 72.9462 62.3706 72.5926C62.3706 72.2389 62.5111 71.8998 62.7611 71.6498C63.0112 71.3997 63.3503 71.2592 63.7039 71.2592ZM66.6669 71.2592C67.0205 71.2592 67.3596 71.3997 67.6097 71.6498C67.8597 71.8998 68.0002 72.2389 68.0002 72.5926C68.0002 72.9462 67.8597 73.2853 67.6097 73.5354C67.3596 73.7854 67.0205 73.9259 66.6669 73.9259C66.3133 73.9259 65.9741 73.7854 65.7241 73.5354C65.474 73.2853 65.3335 72.9462 65.3335 72.5926C65.3335 72.2389 65.474 71.8998 65.7241 71.6498C65.9741 71.3997 66.3133 71.2592 66.6669 71.2592ZM69.6298 71.2592C69.9835 71.2592 70.3226 71.3997 70.5727 71.6498C70.8227 71.8998 70.9632 72.2389 70.9632 72.5926C70.9632 72.9462 70.8227 73.2853 70.5727 73.5354C70.3226 73.7854 69.9835 73.9259 69.6298 73.9259C69.2762 73.9259 68.9371 73.7854 68.687 73.5354C68.437 73.2853 68.2965 72.9462 68.2965 72.5926C68.2965 72.2389 68.437 71.8998 68.687 71.6498C68.9371 71.3997 69.2762 71.2592 69.6298 71.2592ZM72.5928 71.2592C72.9464 71.2592 73.2856 71.3997 73.5356 71.6498C73.7857 71.8998 73.9261 72.2389 73.9261 72.5926C73.9261 72.9462 73.7857 73.2853 73.5356 73.5354C73.2856 73.7854 72.9464 73.9259 72.5928 73.9259C72.2392 73.9259 71.9001 73.7854 71.65 73.5354C71.4 73.2853 71.2595 72.9462 71.2595 72.5926C71.2595 72.2389 71.4 71.8998 71.65 71.6498C71.9001 71.3997 72.2392 71.2592 72.5928 71.2592ZM28.1484 74.2222C28.502 74.2222 28.8411 74.3627 29.0912 74.6127C29.3412 74.8628 29.4817 75.2019 29.4817 75.5555C29.4817 75.9092 29.3412 76.2483 29.0912 76.4983C28.8411 76.7484 28.502 76.8889 28.1484 76.8889C27.7947 76.8889 27.4556 76.7484 27.2056 76.4983C26.9555 76.2483 26.815 75.9092 26.815 75.5555C26.815 75.2019 26.9555 74.8628 27.2056 74.6127C27.4556 74.3627 27.7947 74.2222 28.1484 74.2222ZM37.0373 74.2222C37.3909 74.2222 37.73 74.3627 37.9801 74.6127C38.2301 74.8628 38.3706 75.2019 38.3706 75.5555C38.3706 75.9092 38.2301 76.2483 37.9801 76.4983C37.73 76.7484 37.3909 76.8889 37.0373 76.8889C36.6836 76.8889 36.3445 76.7484 36.0944 76.4983C35.8444 76.2483 35.7039 75.9092 35.7039 75.5555C35.7039 75.2019 35.8444 74.8628 36.0944 74.6127C36.3445 74.3627 36.6836 74.2222 37.0373 74.2222ZM40.0002 74.2222C40.3538 74.2222 40.693 74.3627 40.943 74.6127C41.1931 74.8628 41.3335 75.2019 41.3335 75.5555C41.3335 75.9092 41.1931 76.2483 40.943 76.4983C40.693 76.7484 40.3538 76.8889 40.0002 76.8889C39.6466 76.8889 39.3075 76.7484 39.0574 76.4983C38.8074 76.2483 38.6669 75.9092 38.6669 75.5555C38.6669 75.2019 38.8074 74.8628 39.0574 74.6127C39.3075 74.3627 39.6466 74.2222 40.0002 74.2222ZM48.8891 74.2222C49.2427 74.2222 49.5819 74.3627 49.8319 74.6127C50.082 74.8628 50.2224 75.2019 50.2224 75.5555C50.2224 75.9092 50.082 76.2483 49.8319 76.4983C49.5819 76.7484 49.2427 76.8889 48.8891 76.8889C48.5355 76.8889 48.1963 76.7484 47.9463 76.4983C47.6962 76.2483 47.5558 75.9092 47.5558 75.5555C47.5558 75.2019 47.6962 74.8628 47.9463 74.6127C48.1963 74.3627 48.5355 74.2222 48.8891 74.2222ZM54.815 74.2222C55.1687 74.2222 55.5078 74.3627 55.7578 74.6127C56.0079 74.8628 56.1484 75.2019 56.1484 75.5555C56.1484 75.9092 56.0079 76.2483 55.7578 76.4983C55.5078 76.7484 55.1687 76.8889 54.815 76.8889C54.4614 76.8889 54.1223 76.7484 53.8722 76.4983C53.6222 76.2483 53.4817 75.9092 53.4817 75.5555C53.4817 75.2019 53.6222 74.8628 53.8722 74.6127C54.1223 74.3627 54.4614 74.2222 54.815 74.2222ZM57.778 74.2222C58.1316 74.2222 58.4708 74.3627 58.7208 74.6127C58.9709 74.8628 59.1113 75.2019 59.1113 75.5555C59.1113 75.9092 58.9709 76.2483 58.7208 76.4983C58.4708 76.7484 58.1316 76.8889 57.778 76.8889C57.4244 76.8889 57.0852 76.7484 56.8352 76.4983C56.5851 76.2483 56.4447 75.9092 56.4447 75.5555C56.4447 75.2019 56.5851 74.8628 56.8352 74.6127C57.0852 74.3627 57.4244 74.2222 57.778 74.2222ZM69.6298 74.2222C69.9835 74.2222 70.3226 74.3627 70.5727 74.6127C70.8227 74.8628 70.9632 75.2019 70.9632 75.5555C70.9632 75.9092 70.8227 76.2483 70.5727 76.4983C70.3226 76.7484 69.9835 76.8889 69.6298 76.8889C69.2762 76.8889 68.9371 76.7484 68.687 76.4983C68.437 76.2483 68.2965 75.9092 68.2965 75.5555C68.2965 75.2019 68.437 74.8628 68.687 74.6127C68.9371 74.3627 69.2762 74.2222 69.6298 74.2222ZM72.5928 74.2222C72.9464 74.2222 73.2856 74.3627 73.5356 74.6127C73.7857 74.8628 73.9261 75.2019 73.9261 75.5555C73.9261 75.9092 73.7857 76.2483 73.5356 76.4983C73.2856 76.7484 72.9464 76.8889 72.5928 76.8889C72.2392 76.8889 71.9001 76.7484 71.65 76.4983C71.4 76.2483 71.2595 75.9092 71.2595 75.5555C71.2595 75.2019 71.4 74.8628 71.65 74.6127C71.9001 74.3627 72.2392 74.2222 72.5928 74.2222ZM75.5558 74.2222C75.9094 74.2222 76.2485 74.3627 76.4986 74.6127C76.7486 74.8628 76.8891 75.2019 76.8891 75.5555C76.8891 75.9092 76.7486 76.2483 76.4986 76.4983C76.2485 76.7484 75.9094 76.8889 75.5558 76.8889C75.2022 76.8889 74.863 76.7484 74.613 76.4983C74.3629 76.2483 74.2224 75.9092 74.2224 75.5555C74.2224 75.2019 74.3629 74.8628 74.613 74.6127C74.863 74.3627 75.2022 74.2222 75.5558 74.2222Z" fill="black"></path><path fill-rule="evenodd" clip-rule="evenodd" d="M8.14808 2.96301H18.5184C19.8936 2.96301 21.2125 3.50931 22.1849 4.48172C23.1573 5.45413 23.7036 6.773 23.7036 8.1482V18.5186C23.7036 19.8938 23.1573 21.2126 22.1849 22.185C21.2125 23.1575 19.8936 23.7038 18.5184 23.7038H8.14808C6.77288 23.7038 5.45401 23.1575 4.4816 22.185C3.50919 21.2126 2.96289 19.8938 2.96289 18.5186V8.1482C2.96289 6.773 3.50919 5.45413 4.4816 4.48172C5.45401 3.50931 6.77288 2.96301 8.14808 2.96301ZM9.62956 5.92598H17.037C17.5233 5.92598 18.005 6.02177 18.4543 6.2079C18.9037 6.39403 19.312 6.66684 19.6559 7.01076C19.9998 7.35469 20.2726 7.76298 20.4587 8.21233C20.6449 8.66169 20.7407 9.1433 20.7407 9.62968V17.0371C20.7407 17.5235 20.6449 18.0051 20.4587 18.4544C20.2726 18.9038 19.9998 19.3121 19.6559 19.656C19.312 19.9999 18.9037 20.2727 18.4543 20.4589C18.005 20.645 17.5233 20.7408 17.037 20.7408H9.62956C8.64727 20.7408 7.70522 20.3506 7.01064 19.656C6.31606 18.9614 5.92585 18.0194 5.92585 17.0371V9.62968C5.92585 8.6474 6.31606 7.70534 7.01064 7.01076C7.70522 6.31619 8.64727 5.92598 9.62956 5.92598ZM11.111 8.88894H15.5555C16.1449 8.88894 16.7101 9.12306 17.1268 9.53981C17.5436 9.95656 17.7777 10.5218 17.7777 11.1112V15.5556C17.7777 16.145 17.5436 16.7102 17.1268 17.127C16.7101 17.5437 16.1449 17.7778 15.5555 17.7778H11.111C10.5217 17.7778 9.95644 17.5437 9.53969 17.127C9.12294 16.7102 8.88882 16.145 8.88882 15.5556V11.1112C8.88882 10.5218 9.12294 9.95656 9.53969 9.53981C9.95644 9.12306 10.5217 8.88894 11.111 8.88894ZM61.4814 2.96301H71.8518C73.227 2.96301 74.5458 3.50931 75.5182 4.48172C76.4907 5.45413 77.037 6.773 77.037 8.1482V18.5186C77.037 19.8938 76.4907 21.2126 75.5182 22.185C74.5458 23.1575 73.227 23.7038 71.8518 23.7038H61.4814C60.1062 23.7038 58.7873 23.1575 57.8149 22.185C56.8425 21.2126 56.2962 19.8938 56.2962 18.5186V8.1482C56.2962 6.773 56.8425 5.45413 57.8149 4.48172C58.7873 3.50931 60.1062 2.96301 61.4814 2.96301ZM62.9629 5.92598H70.3703C70.8567 5.92598 71.3383 6.02177 71.7876 6.2079C72.237 6.39403 72.6453 6.66684 72.9892 7.01076C73.3331 7.35469 73.6059 7.76298 73.7921 8.21233C73.9782 8.66169 74.074 9.1433 74.074 9.62968V17.0371C74.074 17.5235 73.9782 18.0051 73.7921 18.4544C73.6059 18.9038 73.3331 19.3121 72.9892 19.656C72.6453 19.9999 72.237 20.2727 71.7876 20.4589C71.3383 20.645 70.8567 20.7408 70.3703 20.7408H62.9629C61.9806 20.7408 61.0385 20.3506 60.344 19.656C59.6494 18.9614 59.2592 18.0194 59.2592 17.0371V9.62968C59.2592 8.6474 59.6494 7.70534 60.344 7.01076C61.0385 6.31619 61.9806 5.92598 62.9629 5.92598ZM64.4444 8.88894H68.8888C69.4782 8.88894 70.0434 9.12306 70.4602 9.53981C70.8769 9.95656 71.111 10.5218 71.111 11.1112V15.5556C71.111 16.145 70.8769 16.7102 70.4602 17.127C70.0434 17.5437 69.4782 17.7778 68.8888 17.7778H64.4444C63.855 17.7778 63.2898 17.5437 62.873 17.127C62.4563 16.7102 62.2221 16.145 62.2221 15.5556V11.1112C62.2221 10.5218 62.4563 9.95656 62.873 9.53981C63.2898 9.12306 63.855 8.88894 64.4444 8.88894ZM8.14808 56.2963H18.5184C19.8936 56.2963 21.2125 56.8426 22.1849 57.815C23.1573 58.7875 23.7036 60.1063 23.7036 61.4815V71.8519C23.7036 73.2271 23.1573 74.546 22.1849 75.5184C21.2125 76.4908 19.8936 77.0371 18.5184 77.0371H8.14808C6.77288 77.0371 5.45401 76.4908 4.4816 75.5184C3.50919 74.546 2.96289 73.2271 2.96289 71.8519V61.4815C2.96289 60.1063 3.50919 58.7875 4.4816 57.815C5.45401 56.8426 6.77288 56.2963 8.14808 56.2963ZM9.62956 59.2593H17.037C17.5233 59.2593 18.005 59.3551 18.4543 59.5412C18.9037 59.7274 19.312 60.0002 19.6559 60.3441C19.9998 60.688 20.2726 61.0963 20.4587 61.5457C20.6449 61.995 20.7407 62.4766 20.7407 62.963V70.3704C20.7407 70.8568 20.6449 71.3384 20.4587 71.7878C20.2726 72.2371 19.9998 72.6454 19.6559 72.9893C19.312 73.3332 18.9037 73.6061 18.4543 73.7922C18.005 73.9783 17.5233 74.0741 17.037 74.0741H9.62956C9.14318 74.0741 8.66156 73.9783 8.21221 73.7922C7.76286 73.6061 7.35456 73.3332 7.01064 72.9893C6.66672 72.6454 6.39391 72.2371 6.20778 71.7878C6.02165 71.3384 5.92585 70.8568 5.92585 70.3704V62.963C5.92585 61.9807 6.31606 61.0387 7.01064 60.3441C7.70522 59.6495 8.64727 59.2593 9.62956 59.2593ZM11.111 62.2223H15.5555C16.1449 62.2223 16.7101 62.4564 17.1268 62.8731C17.5436 63.2899 17.7777 63.8551 17.7777 64.4445V68.8889C17.7777 69.4783 17.5436 70.0435 17.1268 70.4603C16.7101 70.877 16.1449 71.1112 15.5555 71.1112H11.111C10.5217 71.1112 9.95644 70.877 9.53969 70.4603C9.12294 70.0435 8.88882 69.4783 8.88882 68.8889V64.4445C8.88882 63.8551 9.12294 63.2899 9.53969 62.8731C9.95644 62.4564 10.5217 62.2223 11.111 62.2223Z" fill="black"></path></g><defs><clipPath id="clip0_231_2649"><rect width="80" height="80" fill="white"></rect></clipPath></defs></svg>